M48
; DRILL file {KiCad 7.0.5} date Sat Jul  8 16:14:22 2023
; FORMAT={-:-/ absolute / metric / decimal}
; #@! TF.CreationDate,2023-07-08T16:14:22+09:00
; #@! TF.GenerationSoftware,Kicad,Pcbnew,7.0.5
; #@! TF.FileFunction,MixedPlating,1,2
FMAT,2
METRIC
; #@! TA.AperFunction,Plated,PTH,ViaDrill
T1C0.300
; #@! TA.AperFunction,Plated,PTH,ComponentDrill
T2C0.762
; #@! TA.AperFunction,Plated,PTH,ComponentDrill
T3C0.800
; #@! TA.AperFunction,Plated,PTH,ComponentDrill
T4C0.900
; #@! TA.AperFunction,Plated,PTH,ComponentDrill
T5C0.920
; #@! TA.AperFunction,Plated,PTH,ComponentDrill
T6C1.000
; #@! TA.AperFunction,Plated,PTH,ComponentDrill
T7C1.500
; #@! TA.AperFunction,Plated,PTH,ComponentDrill
T8C2.300
; #@! TA.AperFunction,NonPlated,NPTH,ComponentDrill
T9C1.200
; #@! TA.AperFunction,NonPlated,NPTH,ComponentDrill
T10C1.524
; #@! TA.AperFunction,NonPlated,NPTH,ComponentDrill
T11C3.200
; #@! TA.AperFunction,NonPlated,NPTH,ComponentDrill
T12C3.500
%
G90
G05
T1
X6.35Y57.15
X6.35Y44.45
X6.35Y31.75
X12.55Y24.72
X12.7Y38.1
X12.7Y6.35
X19.05Y50.8
X19.05Y44.45
X24.0Y31.0
X25.4Y57.15
X25.4Y12.7
X25.4Y6.35
X30.73Y62.95
X31.531Y38.084
X31.75Y25.4
X31.75Y19.05
X31.75Y6.35
X32.175Y53.31
X34.3Y33.39
X34.36Y47.66
X34.78Y50.79
X34.8Y49.72
X36.19Y42.04
X38.1Y63.5
X38.1Y6.35
X42.545Y21.59
X44.45Y63.381
X44.45Y6.35
X45.08Y54.57
X45.23Y40.89
X47.32Y37.81
X48.551Y27.649
X49.16Y46.71
X49.825Y43.475
X50.8Y50.8
X50.8Y19.05
X52.33Y43.52
X55.3Y47.21
X57.15Y6.35
X58.67Y39.58
X59.96Y54.09
X60.98Y27.186
X63.5Y19.05
X63.5Y6.35
X65.86Y62.19
X67.96Y34.53
X69.85Y50.8
X69.85Y31.75
X69.85Y25.4
X69.85Y19.05
X69.85Y12.7
X69.85Y6.35
X76.2Y50.8
X76.2Y38.1
X76.2Y12.7
X76.2Y6.35
X82.55Y50.8
X82.55Y38.1
X82.55Y31.75
X82.55Y19.05
X82.55Y12.7
X82.55Y6.35
X83.4Y58.15
T2
X16.875Y65.0
X18.0Y67.0
X18.0Y63.0
X19.125Y65.0
X20.25Y67.0
X20.25Y63.0
X21.375Y65.0
X22.5Y67.0
X22.5Y63.0
X23.625Y65.0
X24.75Y67.0
X24.75Y63.0
X25.875Y65.0
X27.0Y67.0
X27.0Y63.0
T3
X15.28Y10.0
X17.78Y10.0
X20.32Y22.86
X27.94Y22.86
X45.76Y29.21
X47.625Y64.135
X48.26Y29.21
X50.125Y64.135
X52.705Y64.135
X54.65Y29.21
X55.205Y64.135
X57.15Y29.21
X69.215Y40.6
X69.215Y38.1
X70.71Y54.95
X73.21Y54.95
X77.28Y54.82
X78.74Y48.26
X78.78Y43.18
X81.24Y48.26
X81.28Y43.18
X84.9Y54.82
T4
X22.86Y17.78
X25.4Y17.78
X67.965Y22.98
X73.045Y22.98
T5
X55.97Y12.87
X58.47Y12.87
X60.47Y12.87
X62.97Y12.87
T6
X3.46Y10.0
X6.0Y10.0
X8.54Y10.0
X18.02Y35.06
X20.46Y60.0
X20.56Y35.06
X28.08Y60.0
X28.16Y39.6
X28.16Y34.6
X28.16Y29.6
X28.22Y55.04
X28.22Y52.5
X28.22Y49.96
X28.22Y47.42
X28.22Y44.88
X28.22Y42.1
X28.22Y37.1
X28.22Y32.1
X30.48Y11.0
X33.02Y11.0
X34.544Y45.68
X34.544Y43.18
X35.56Y11.0
X38.1Y55.88
X38.1Y53.34
X38.1Y50.8
X38.1Y48.26
X38.1Y45.72
X38.1Y43.18
X38.1Y40.64
X38.1Y38.1
X38.1Y11.0
X40.64Y55.88
X40.64Y53.34
X40.64Y50.8
X40.64Y48.26
X40.64Y45.72
X40.64Y43.18
X40.64Y40.64
X40.64Y38.1
X40.64Y11.0
X43.18Y60.96
X43.18Y58.42
X43.18Y35.56
X43.18Y33.02
X43.18Y11.0
X45.72Y60.96
X45.72Y58.42
X45.72Y35.56
X45.72Y33.02
X45.75Y23.78
X45.75Y16.16
X48.26Y60.96
X48.26Y58.42
X48.26Y35.56
X48.26Y33.02
X50.8Y60.96
X50.8Y58.42
X50.8Y35.56
X50.8Y33.02
X53.34Y60.96
X53.34Y58.42
X53.34Y35.56
X53.34Y33.02
X55.88Y60.96
X55.88Y58.42
X55.88Y35.56
X55.88Y33.02
X58.42Y60.96
X58.42Y58.42
X58.42Y35.56
X58.42Y33.02
X60.96Y60.96
X60.96Y58.42
X60.96Y35.56
X60.96Y33.02
X63.5Y55.88
X63.5Y53.34
X63.5Y50.8
X63.5Y48.26
X63.5Y45.72
X63.5Y43.18
X63.5Y40.64
X63.5Y38.1
X66.04Y55.88
X66.04Y53.34
X66.04Y50.8
X66.04Y48.26
X66.04Y45.72
X66.04Y43.18
X66.04Y40.64
X66.04Y38.1
X73.65Y48.15
X73.65Y45.61
X73.65Y43.25
X79.76Y30.62
X79.76Y28.08
X79.76Y25.54
X79.76Y23.0
X79.76Y20.46
X79.76Y17.92
T7
X75.1Y66.375
X75.75Y58.875
X80.25Y58.875
X80.9Y66.375
T8
X52.9Y10.16
X66.04Y10.16
T9
X75.5Y62.875
X80.5Y62.875
T10
X14.5Y65.0
X30.5Y65.0
T11
X3.25Y66.75
X3.25Y3.25
X86.75Y66.75
X86.75Y3.25
T12
X10.0Y65.0
X35.0Y65.0
T6
G00X8.17Y22.37
M15
G01X8.17Y19.87
M16
G05
G00X9.97Y15.72
M15
G01X12.47Y15.72
M16
G05
G00X14.17Y22.37
M15
G01X14.17Y19.87
M16
G05
T0
M30
