%TF.GenerationSoftware,KiCad,Pcbnew,7.0.5*%
%TF.CreationDate,2023-07-08T16:14:15+09:00*%
%TF.ProjectId,mz80emu-vga,6d7a3830-656d-4752-9d76-67612e6b6963,2.0*%
%TF.SameCoordinates,PX5f5e100PY8f872a0*%
%TF.FileFunction,Legend,Top*%
%TF.FilePolarity,Positive*%
%FSLAX46Y46*%
G04 Gerber Fmt 4.6, Leading zero omitted, Abs format (unit mm)*
G04 Created by KiCad (PCBNEW 7.0.5) date 2023-07-08 16:14:15*
%MOMM*%
%LPD*%
G01*
G04 APERTURE LIST*
%ADD10C,0.150000*%
%ADD11C,0.555437*%
%ADD12C,0.300000*%
%ADD13C,0.100000*%
%ADD14C,0.200000*%
%ADD15C,0.120000*%
%ADD16C,0.152400*%
G04 APERTURE END LIST*
D10*
X74090000Y20500000D02*
X73000000Y19900000D01*
X73000000Y21100000D01*
X74090000Y20500000D01*
G36*
X74090000Y20500000D02*
G01*
X73000000Y19900000D01*
X73000000Y21100000D01*
X74090000Y20500000D01*
G37*
X74090000Y21135000D02*
X74090000Y19865000D01*
X38010000Y58060000D02*
X37430000Y59180000D01*
X38640000Y59180000D01*
X38010000Y58060000D01*
G36*
X38010000Y58060000D02*
G01*
X37430000Y59180000D01*
X38640000Y59180000D01*
X38010000Y58060000D01*
G37*
X47190000Y9870000D02*
X45200000Y10850000D01*
X47190000Y11850000D01*
X47190000Y9870000D01*
G36*
X47190000Y9870000D02*
G01*
X45200000Y10850000D01*
X47190000Y11850000D01*
X47190000Y9870000D01*
G37*
X45105117Y50736038D02*
X44140000Y50280000D01*
X44140000Y51180000D01*
X45105117Y50736038D01*
G36*
X45105117Y50736038D02*
G01*
X44140000Y50280000D01*
X44140000Y51180000D01*
X45105117Y50736038D01*
G37*
D11*
X48707718Y50620000D02*
G75*
G03*
X48707718Y50620000I-277718J0D01*
G01*
D10*
X72990000Y20500000D02*
X72660000Y20500000D01*
X74090000Y20500000D02*
X74300000Y20500000D01*
X41896779Y7870181D02*
X41896779Y8870181D01*
X41896779Y8870181D02*
X42230112Y8155896D01*
X42230112Y8155896D02*
X42563445Y8870181D01*
X42563445Y8870181D02*
X42563445Y7870181D01*
X43611064Y7965420D02*
X43563445Y7917800D01*
X43563445Y7917800D02*
X43420588Y7870181D01*
X43420588Y7870181D02*
X43325350Y7870181D01*
X43325350Y7870181D02*
X43182493Y7917800D01*
X43182493Y7917800D02*
X43087255Y8013039D01*
X43087255Y8013039D02*
X43039636Y8108277D01*
X43039636Y8108277D02*
X42992017Y8298753D01*
X42992017Y8298753D02*
X42992017Y8441610D01*
X42992017Y8441610D02*
X43039636Y8632086D01*
X43039636Y8632086D02*
X43087255Y8727324D01*
X43087255Y8727324D02*
X43182493Y8822562D01*
X43182493Y8822562D02*
X43325350Y8870181D01*
X43325350Y8870181D02*
X43420588Y8870181D01*
X43420588Y8870181D02*
X43563445Y8822562D01*
X43563445Y8822562D02*
X43611064Y8774943D01*
X44515826Y7870181D02*
X44039636Y7870181D01*
X44039636Y7870181D02*
X44039636Y8870181D01*
X45420588Y7870181D02*
X45087255Y8346372D01*
X44849160Y7870181D02*
X44849160Y8870181D01*
X44849160Y8870181D02*
X45230112Y8870181D01*
X45230112Y8870181D02*
X45325350Y8822562D01*
X45325350Y8822562D02*
X45372969Y8774943D01*
X45372969Y8774943D02*
X45420588Y8679705D01*
X45420588Y8679705D02*
X45420588Y8536848D01*
X45420588Y8536848D02*
X45372969Y8441610D01*
X45372969Y8441610D02*
X45325350Y8393991D01*
X45325350Y8393991D02*
X45230112Y8346372D01*
X45230112Y8346372D02*
X44849160Y8346372D01*
D12*
X8254510Y1029172D02*
X8254510Y2529172D01*
X8254510Y2529172D02*
X8825939Y2529172D01*
X8825939Y2529172D02*
X8968796Y2457743D01*
X8968796Y2457743D02*
X9040225Y2386315D01*
X9040225Y2386315D02*
X9111653Y2243458D01*
X9111653Y2243458D02*
X9111653Y2029172D01*
X9111653Y2029172D02*
X9040225Y1886315D01*
X9040225Y1886315D02*
X8968796Y1814886D01*
X8968796Y1814886D02*
X8825939Y1743458D01*
X8825939Y1743458D02*
X8254510Y1743458D01*
X9754510Y1029172D02*
X9754510Y2529172D01*
X11325939Y1172029D02*
X11254511Y1100600D01*
X11254511Y1100600D02*
X11040225Y1029172D01*
X11040225Y1029172D02*
X10897368Y1029172D01*
X10897368Y1029172D02*
X10683082Y1100600D01*
X10683082Y1100600D02*
X10540225Y1243458D01*
X10540225Y1243458D02*
X10468796Y1386315D01*
X10468796Y1386315D02*
X10397368Y1672029D01*
X10397368Y1672029D02*
X10397368Y1886315D01*
X10397368Y1886315D02*
X10468796Y2172029D01*
X10468796Y2172029D02*
X10540225Y2314886D01*
X10540225Y2314886D02*
X10683082Y2457743D01*
X10683082Y2457743D02*
X10897368Y2529172D01*
X10897368Y2529172D02*
X11040225Y2529172D01*
X11040225Y2529172D02*
X11254511Y2457743D01*
X11254511Y2457743D02*
X11325939Y2386315D01*
X11825939Y2529172D02*
X12754511Y2529172D01*
X12754511Y2529172D02*
X12254511Y1957743D01*
X12254511Y1957743D02*
X12468796Y1957743D01*
X12468796Y1957743D02*
X12611654Y1886315D01*
X12611654Y1886315D02*
X12683082Y1814886D01*
X12683082Y1814886D02*
X12754511Y1672029D01*
X12754511Y1672029D02*
X12754511Y1314886D01*
X12754511Y1314886D02*
X12683082Y1172029D01*
X12683082Y1172029D02*
X12611654Y1100600D01*
X12611654Y1100600D02*
X12468796Y1029172D01*
X12468796Y1029172D02*
X12040225Y1029172D01*
X12040225Y1029172D02*
X11897368Y1100600D01*
X11897368Y1100600D02*
X11825939Y1172029D01*
X13325939Y2386315D02*
X13397367Y2457743D01*
X13397367Y2457743D02*
X13540225Y2529172D01*
X13540225Y2529172D02*
X13897367Y2529172D01*
X13897367Y2529172D02*
X14040225Y2457743D01*
X14040225Y2457743D02*
X14111653Y2386315D01*
X14111653Y2386315D02*
X14183082Y2243458D01*
X14183082Y2243458D02*
X14183082Y2100600D01*
X14183082Y2100600D02*
X14111653Y1886315D01*
X14111653Y1886315D02*
X13254510Y1029172D01*
X13254510Y1029172D02*
X14183082Y1029172D01*
X14825938Y1029172D02*
X14825938Y2529172D01*
X14825938Y2529172D02*
X15325938Y1457743D01*
X15325938Y1457743D02*
X15825938Y2529172D01*
X15825938Y2529172D02*
X15825938Y1029172D01*
X16397367Y2529172D02*
X17397367Y1029172D01*
X17397367Y2529172D02*
X16397367Y1029172D01*
X19111652Y1029172D02*
X19111652Y2529172D01*
X19111652Y2529172D02*
X19611652Y1457743D01*
X19611652Y1457743D02*
X20111652Y2529172D01*
X20111652Y2529172D02*
X20111652Y1029172D01*
X20683081Y2529172D02*
X21683081Y2529172D01*
X21683081Y2529172D02*
X20683081Y1029172D01*
X20683081Y1029172D02*
X21683081Y1029172D01*
X22468795Y1886315D02*
X22325938Y1957743D01*
X22325938Y1957743D02*
X22254509Y2029172D01*
X22254509Y2029172D02*
X22183081Y2172029D01*
X22183081Y2172029D02*
X22183081Y2243458D01*
X22183081Y2243458D02*
X22254509Y2386315D01*
X22254509Y2386315D02*
X22325938Y2457743D01*
X22325938Y2457743D02*
X22468795Y2529172D01*
X22468795Y2529172D02*
X22754509Y2529172D01*
X22754509Y2529172D02*
X22897367Y2457743D01*
X22897367Y2457743D02*
X22968795Y2386315D01*
X22968795Y2386315D02*
X23040224Y2243458D01*
X23040224Y2243458D02*
X23040224Y2172029D01*
X23040224Y2172029D02*
X22968795Y2029172D01*
X22968795Y2029172D02*
X22897367Y1957743D01*
X22897367Y1957743D02*
X22754509Y1886315D01*
X22754509Y1886315D02*
X22468795Y1886315D01*
X22468795Y1886315D02*
X22325938Y1814886D01*
X22325938Y1814886D02*
X22254509Y1743458D01*
X22254509Y1743458D02*
X22183081Y1600600D01*
X22183081Y1600600D02*
X22183081Y1314886D01*
X22183081Y1314886D02*
X22254509Y1172029D01*
X22254509Y1172029D02*
X22325938Y1100600D01*
X22325938Y1100600D02*
X22468795Y1029172D01*
X22468795Y1029172D02*
X22754509Y1029172D01*
X22754509Y1029172D02*
X22897367Y1100600D01*
X22897367Y1100600D02*
X22968795Y1172029D01*
X22968795Y1172029D02*
X23040224Y1314886D01*
X23040224Y1314886D02*
X23040224Y1600600D01*
X23040224Y1600600D02*
X22968795Y1743458D01*
X22968795Y1743458D02*
X22897367Y1814886D01*
X22897367Y1814886D02*
X22754509Y1886315D01*
X23968795Y2529172D02*
X24111652Y2529172D01*
X24111652Y2529172D02*
X24254509Y2457743D01*
X24254509Y2457743D02*
X24325938Y2386315D01*
X24325938Y2386315D02*
X24397366Y2243458D01*
X24397366Y2243458D02*
X24468795Y1957743D01*
X24468795Y1957743D02*
X24468795Y1600600D01*
X24468795Y1600600D02*
X24397366Y1314886D01*
X24397366Y1314886D02*
X24325938Y1172029D01*
X24325938Y1172029D02*
X24254509Y1100600D01*
X24254509Y1100600D02*
X24111652Y1029172D01*
X24111652Y1029172D02*
X23968795Y1029172D01*
X23968795Y1029172D02*
X23825938Y1100600D01*
X23825938Y1100600D02*
X23754509Y1172029D01*
X23754509Y1172029D02*
X23683080Y1314886D01*
X23683080Y1314886D02*
X23611652Y1600600D01*
X23611652Y1600600D02*
X23611652Y1957743D01*
X23611652Y1957743D02*
X23683080Y2243458D01*
X23683080Y2243458D02*
X23754509Y2386315D01*
X23754509Y2386315D02*
X23825938Y2457743D01*
X23825938Y2457743D02*
X23968795Y2529172D01*
X25111651Y1814886D02*
X25611651Y1814886D01*
X25825937Y1029172D02*
X25111651Y1029172D01*
X25111651Y1029172D02*
X25111651Y2529172D01*
X25111651Y2529172D02*
X25825937Y2529172D01*
X26468794Y1029172D02*
X26468794Y2529172D01*
X26468794Y2529172D02*
X26968794Y1457743D01*
X26968794Y1457743D02*
X27468794Y2529172D01*
X27468794Y2529172D02*
X27468794Y1029172D01*
X28183080Y2529172D02*
X28183080Y1314886D01*
X28183080Y1314886D02*
X28254509Y1172029D01*
X28254509Y1172029D02*
X28325938Y1100600D01*
X28325938Y1100600D02*
X28468795Y1029172D01*
X28468795Y1029172D02*
X28754509Y1029172D01*
X28754509Y1029172D02*
X28897366Y1100600D01*
X28897366Y1100600D02*
X28968795Y1172029D01*
X28968795Y1172029D02*
X29040223Y1314886D01*
X29040223Y1314886D02*
X29040223Y2529172D01*
X29754509Y1600600D02*
X30897367Y1600600D01*
X31397367Y2529172D02*
X31897367Y1029172D01*
X31897367Y1029172D02*
X32397367Y2529172D01*
X33683081Y2457743D02*
X33540224Y2529172D01*
X33540224Y2529172D02*
X33325938Y2529172D01*
X33325938Y2529172D02*
X33111652Y2457743D01*
X33111652Y2457743D02*
X32968795Y2314886D01*
X32968795Y2314886D02*
X32897366Y2172029D01*
X32897366Y2172029D02*
X32825938Y1886315D01*
X32825938Y1886315D02*
X32825938Y1672029D01*
X32825938Y1672029D02*
X32897366Y1386315D01*
X32897366Y1386315D02*
X32968795Y1243458D01*
X32968795Y1243458D02*
X33111652Y1100600D01*
X33111652Y1100600D02*
X33325938Y1029172D01*
X33325938Y1029172D02*
X33468795Y1029172D01*
X33468795Y1029172D02*
X33683081Y1100600D01*
X33683081Y1100600D02*
X33754509Y1172029D01*
X33754509Y1172029D02*
X33754509Y1672029D01*
X33754509Y1672029D02*
X33468795Y1672029D01*
X34325938Y1457743D02*
X35040224Y1457743D01*
X34183081Y1029172D02*
X34683081Y2529172D01*
X34683081Y2529172D02*
X35183081Y1029172D01*
X37683080Y1029172D02*
X37183080Y1743458D01*
X36825937Y1029172D02*
X36825937Y2529172D01*
X36825937Y2529172D02*
X37397366Y2529172D01*
X37397366Y2529172D02*
X37540223Y2457743D01*
X37540223Y2457743D02*
X37611652Y2386315D01*
X37611652Y2386315D02*
X37683080Y2243458D01*
X37683080Y2243458D02*
X37683080Y2029172D01*
X37683080Y2029172D02*
X37611652Y1886315D01*
X37611652Y1886315D02*
X37540223Y1814886D01*
X37540223Y1814886D02*
X37397366Y1743458D01*
X37397366Y1743458D02*
X36825937Y1743458D01*
X38897366Y1100600D02*
X38754509Y1029172D01*
X38754509Y1029172D02*
X38468795Y1029172D01*
X38468795Y1029172D02*
X38325937Y1100600D01*
X38325937Y1100600D02*
X38254509Y1243458D01*
X38254509Y1243458D02*
X38254509Y1814886D01*
X38254509Y1814886D02*
X38325937Y1957743D01*
X38325937Y1957743D02*
X38468795Y2029172D01*
X38468795Y2029172D02*
X38754509Y2029172D01*
X38754509Y2029172D02*
X38897366Y1957743D01*
X38897366Y1957743D02*
X38968795Y1814886D01*
X38968795Y1814886D02*
X38968795Y1672029D01*
X38968795Y1672029D02*
X38254509Y1529172D01*
X39468794Y2029172D02*
X39825937Y1029172D01*
X39825937Y1029172D02*
X40183080Y2029172D01*
X41825937Y2386315D02*
X41897365Y2457743D01*
X41897365Y2457743D02*
X42040223Y2529172D01*
X42040223Y2529172D02*
X42397365Y2529172D01*
X42397365Y2529172D02*
X42540223Y2457743D01*
X42540223Y2457743D02*
X42611651Y2386315D01*
X42611651Y2386315D02*
X42683080Y2243458D01*
X42683080Y2243458D02*
X42683080Y2100600D01*
X42683080Y2100600D02*
X42611651Y1886315D01*
X42611651Y1886315D02*
X41754508Y1029172D01*
X41754508Y1029172D02*
X42683080Y1029172D01*
X43325936Y1172029D02*
X43397365Y1100600D01*
X43397365Y1100600D02*
X43325936Y1029172D01*
X43325936Y1029172D02*
X43254508Y1100600D01*
X43254508Y1100600D02*
X43325936Y1172029D01*
X43325936Y1172029D02*
X43325936Y1029172D01*
X44325937Y2529172D02*
X44468794Y2529172D01*
X44468794Y2529172D02*
X44611651Y2457743D01*
X44611651Y2457743D02*
X44683080Y2386315D01*
X44683080Y2386315D02*
X44754508Y2243458D01*
X44754508Y2243458D02*
X44825937Y1957743D01*
X44825937Y1957743D02*
X44825937Y1600600D01*
X44825937Y1600600D02*
X44754508Y1314886D01*
X44754508Y1314886D02*
X44683080Y1172029D01*
X44683080Y1172029D02*
X44611651Y1100600D01*
X44611651Y1100600D02*
X44468794Y1029172D01*
X44468794Y1029172D02*
X44325937Y1029172D01*
X44325937Y1029172D02*
X44183080Y1100600D01*
X44183080Y1100600D02*
X44111651Y1172029D01*
X44111651Y1172029D02*
X44040222Y1314886D01*
X44040222Y1314886D02*
X43968794Y1600600D01*
X43968794Y1600600D02*
X43968794Y1957743D01*
X43968794Y1957743D02*
X44040222Y2243458D01*
X44040222Y2243458D02*
X44111651Y2386315D01*
X44111651Y2386315D02*
X44183080Y2457743D01*
X44183080Y2457743D02*
X44325937Y2529172D01*
D10*
X82166779Y27610181D02*
X82166779Y28610181D01*
X82166779Y28610181D02*
X82738207Y27610181D01*
X82738207Y27610181D02*
X82738207Y28610181D01*
X83785826Y27705420D02*
X83738207Y27657800D01*
X83738207Y27657800D02*
X83595350Y27610181D01*
X83595350Y27610181D02*
X83500112Y27610181D01*
X83500112Y27610181D02*
X83357255Y27657800D01*
X83357255Y27657800D02*
X83262017Y27753039D01*
X83262017Y27753039D02*
X83214398Y27848277D01*
X83214398Y27848277D02*
X83166779Y28038753D01*
X83166779Y28038753D02*
X83166779Y28181610D01*
X83166779Y28181610D02*
X83214398Y28372086D01*
X83214398Y28372086D02*
X83262017Y28467324D01*
X83262017Y28467324D02*
X83357255Y28562562D01*
X83357255Y28562562D02*
X83500112Y28610181D01*
X83500112Y28610181D02*
X83595350Y28610181D01*
X83595350Y28610181D02*
X83738207Y28562562D01*
X83738207Y28562562D02*
X83785826Y28514943D01*
D13*
X35672931Y37828629D02*
X35330074Y37828629D01*
X35501503Y37828629D02*
X35501503Y38428629D01*
X35501503Y38428629D02*
X35444360Y38342915D01*
X35444360Y38342915D02*
X35387217Y38285772D01*
X35387217Y38285772D02*
X35330074Y38257200D01*
X36215789Y38428629D02*
X35930075Y38428629D01*
X35930075Y38428629D02*
X35901503Y38142915D01*
X35901503Y38142915D02*
X35930075Y38171486D01*
X35930075Y38171486D02*
X35987218Y38200058D01*
X35987218Y38200058D02*
X36130075Y38200058D01*
X36130075Y38200058D02*
X36187218Y38171486D01*
X36187218Y38171486D02*
X36215789Y38142915D01*
X36215789Y38142915D02*
X36244360Y38085772D01*
X36244360Y38085772D02*
X36244360Y37942915D01*
X36244360Y37942915D02*
X36215789Y37885772D01*
X36215789Y37885772D02*
X36187218Y37857200D01*
X36187218Y37857200D02*
X36130075Y37828629D01*
X36130075Y37828629D02*
X35987218Y37828629D01*
X35987218Y37828629D02*
X35930075Y37857200D01*
X35930075Y37857200D02*
X35901503Y37885772D01*
X41111371Y35452932D02*
X41111371Y35110075D01*
X41111371Y35281504D02*
X40511371Y35281504D01*
X40511371Y35281504D02*
X40597085Y35224361D01*
X40597085Y35224361D02*
X40654228Y35167218D01*
X40654228Y35167218D02*
X40682800Y35110075D01*
X40768514Y35795790D02*
X40739942Y35738647D01*
X40739942Y35738647D02*
X40711371Y35710076D01*
X40711371Y35710076D02*
X40654228Y35681504D01*
X40654228Y35681504D02*
X40625657Y35681504D01*
X40625657Y35681504D02*
X40568514Y35710076D01*
X40568514Y35710076D02*
X40539942Y35738647D01*
X40539942Y35738647D02*
X40511371Y35795790D01*
X40511371Y35795790D02*
X40511371Y35910076D01*
X40511371Y35910076D02*
X40539942Y35967218D01*
X40539942Y35967218D02*
X40568514Y35995790D01*
X40568514Y35995790D02*
X40625657Y36024361D01*
X40625657Y36024361D02*
X40654228Y36024361D01*
X40654228Y36024361D02*
X40711371Y35995790D01*
X40711371Y35995790D02*
X40739942Y35967218D01*
X40739942Y35967218D02*
X40768514Y35910076D01*
X40768514Y35910076D02*
X40768514Y35795790D01*
X40768514Y35795790D02*
X40797085Y35738647D01*
X40797085Y35738647D02*
X40825657Y35710076D01*
X40825657Y35710076D02*
X40882800Y35681504D01*
X40882800Y35681504D02*
X40997085Y35681504D01*
X40997085Y35681504D02*
X41054228Y35710076D01*
X41054228Y35710076D02*
X41082800Y35738647D01*
X41082800Y35738647D02*
X41111371Y35795790D01*
X41111371Y35795790D02*
X41111371Y35910076D01*
X41111371Y35910076D02*
X41082800Y35967218D01*
X41082800Y35967218D02*
X41054228Y35995790D01*
X41054228Y35995790D02*
X40997085Y36024361D01*
X40997085Y36024361D02*
X40882800Y36024361D01*
X40882800Y36024361D02*
X40825657Y35995790D01*
X40825657Y35995790D02*
X40797085Y35967218D01*
X40797085Y35967218D02*
X40768514Y35910076D01*
X60851503Y38518629D02*
X61222931Y38518629D01*
X61222931Y38518629D02*
X61022931Y38290058D01*
X61022931Y38290058D02*
X61108646Y38290058D01*
X61108646Y38290058D02*
X61165789Y38261486D01*
X61165789Y38261486D02*
X61194360Y38232915D01*
X61194360Y38232915D02*
X61222931Y38175772D01*
X61222931Y38175772D02*
X61222931Y38032915D01*
X61222931Y38032915D02*
X61194360Y37975772D01*
X61194360Y37975772D02*
X61165789Y37947200D01*
X61165789Y37947200D02*
X61108646Y37918629D01*
X61108646Y37918629D02*
X60937217Y37918629D01*
X60937217Y37918629D02*
X60880074Y37947200D01*
X60880074Y37947200D02*
X60851503Y37975772D01*
X61737218Y38318629D02*
X61737218Y37918629D01*
X61594360Y38547200D02*
X61451503Y38118629D01*
X61451503Y38118629D02*
X61822932Y38118629D01*
X62762931Y11740058D02*
X62705789Y11768629D01*
X62705789Y11768629D02*
X62620074Y11768629D01*
X62620074Y11768629D02*
X62534360Y11740058D01*
X62534360Y11740058D02*
X62477217Y11682915D01*
X62477217Y11682915D02*
X62448646Y11625772D01*
X62448646Y11625772D02*
X62420074Y11511486D01*
X62420074Y11511486D02*
X62420074Y11425772D01*
X62420074Y11425772D02*
X62448646Y11311486D01*
X62448646Y11311486D02*
X62477217Y11254343D01*
X62477217Y11254343D02*
X62534360Y11197200D01*
X62534360Y11197200D02*
X62620074Y11168629D01*
X62620074Y11168629D02*
X62677217Y11168629D01*
X62677217Y11168629D02*
X62762931Y11197200D01*
X62762931Y11197200D02*
X62791503Y11225772D01*
X62791503Y11225772D02*
X62791503Y11425772D01*
X62791503Y11425772D02*
X62677217Y11425772D01*
X63048646Y11168629D02*
X63048646Y11768629D01*
X63048646Y11768629D02*
X63391503Y11168629D01*
X63391503Y11168629D02*
X63391503Y11768629D01*
X63677217Y11168629D02*
X63677217Y11768629D01*
X63677217Y11768629D02*
X63820074Y11768629D01*
X63820074Y11768629D02*
X63905788Y11740058D01*
X63905788Y11740058D02*
X63962931Y11682915D01*
X63962931Y11682915D02*
X63991502Y11625772D01*
X63991502Y11625772D02*
X64020074Y11511486D01*
X64020074Y11511486D02*
X64020074Y11425772D01*
X64020074Y11425772D02*
X63991502Y11311486D01*
X63991502Y11311486D02*
X63962931Y11254343D01*
X63962931Y11254343D02*
X63905788Y11197200D01*
X63905788Y11197200D02*
X63820074Y11168629D01*
X63820074Y11168629D02*
X63677217Y11168629D01*
X63665789Y58338629D02*
X63665789Y57938629D01*
X63522931Y58567200D02*
X63380074Y58138629D01*
X63380074Y58138629D02*
X63751503Y58138629D01*
X64065789Y58281486D02*
X64008646Y58310058D01*
X64008646Y58310058D02*
X63980075Y58338629D01*
X63980075Y58338629D02*
X63951503Y58395772D01*
X63951503Y58395772D02*
X63951503Y58424343D01*
X63951503Y58424343D02*
X63980075Y58481486D01*
X63980075Y58481486D02*
X64008646Y58510058D01*
X64008646Y58510058D02*
X64065789Y58538629D01*
X64065789Y58538629D02*
X64180075Y58538629D01*
X64180075Y58538629D02*
X64237218Y58510058D01*
X64237218Y58510058D02*
X64265789Y58481486D01*
X64265789Y58481486D02*
X64294360Y58424343D01*
X64294360Y58424343D02*
X64294360Y58395772D01*
X64294360Y58395772D02*
X64265789Y58338629D01*
X64265789Y58338629D02*
X64237218Y58310058D01*
X64237218Y58310058D02*
X64180075Y58281486D01*
X64180075Y58281486D02*
X64065789Y58281486D01*
X64065789Y58281486D02*
X64008646Y58252915D01*
X64008646Y58252915D02*
X63980075Y58224343D01*
X63980075Y58224343D02*
X63951503Y58167200D01*
X63951503Y58167200D02*
X63951503Y58052915D01*
X63951503Y58052915D02*
X63980075Y57995772D01*
X63980075Y57995772D02*
X64008646Y57967200D01*
X64008646Y57967200D02*
X64065789Y57938629D01*
X64065789Y57938629D02*
X64180075Y57938629D01*
X64180075Y57938629D02*
X64237218Y57967200D01*
X64237218Y57967200D02*
X64265789Y57995772D01*
X64265789Y57995772D02*
X64294360Y58052915D01*
X64294360Y58052915D02*
X64294360Y58167200D01*
X64294360Y58167200D02*
X64265789Y58224343D01*
X64265789Y58224343D02*
X64237218Y58252915D01*
X64237218Y58252915D02*
X64180075Y58281486D01*
X56054360Y11808629D02*
X55768646Y11808629D01*
X55768646Y11808629D02*
X55740074Y11522915D01*
X55740074Y11522915D02*
X55768646Y11551486D01*
X55768646Y11551486D02*
X55825789Y11580058D01*
X55825789Y11580058D02*
X55968646Y11580058D01*
X55968646Y11580058D02*
X56025789Y11551486D01*
X56025789Y11551486D02*
X56054360Y11522915D01*
X56054360Y11522915D02*
X56082931Y11465772D01*
X56082931Y11465772D02*
X56082931Y11322915D01*
X56082931Y11322915D02*
X56054360Y11265772D01*
X56054360Y11265772D02*
X56025789Y11237200D01*
X56025789Y11237200D02*
X55968646Y11208629D01*
X55968646Y11208629D02*
X55825789Y11208629D01*
X55825789Y11208629D02*
X55768646Y11237200D01*
X55768646Y11237200D02*
X55740074Y11265772D01*
X56254360Y11808629D02*
X56454360Y11208629D01*
X56454360Y11208629D02*
X56654360Y11808629D01*
D10*
X64969160Y22985896D02*
X65445350Y22985896D01*
X64873922Y22700181D02*
X65207255Y23700181D01*
X65207255Y23700181D02*
X65540588Y22700181D01*
D13*
X41081371Y32812932D02*
X41081371Y32470075D01*
X41081371Y32641504D02*
X40481371Y32641504D01*
X40481371Y32641504D02*
X40567085Y32584361D01*
X40567085Y32584361D02*
X40624228Y32527218D01*
X40624228Y32527218D02*
X40652800Y32470075D01*
X40481371Y33012933D02*
X40481371Y33412933D01*
X40481371Y33412933D02*
X41081371Y33155790D01*
X42771371Y63205789D02*
X42771371Y63091504D01*
X42771371Y63091504D02*
X42799942Y63034361D01*
X42799942Y63034361D02*
X42828514Y63005789D01*
X42828514Y63005789D02*
X42914228Y62948647D01*
X42914228Y62948647D02*
X43028514Y62920075D01*
X43028514Y62920075D02*
X43257085Y62920075D01*
X43257085Y62920075D02*
X43314228Y62948647D01*
X43314228Y62948647D02*
X43342800Y62977218D01*
X43342800Y62977218D02*
X43371371Y63034361D01*
X43371371Y63034361D02*
X43371371Y63148647D01*
X43371371Y63148647D02*
X43342800Y63205789D01*
X43342800Y63205789D02*
X43314228Y63234361D01*
X43314228Y63234361D02*
X43257085Y63262932D01*
X43257085Y63262932D02*
X43114228Y63262932D01*
X43114228Y63262932D02*
X43057085Y63234361D01*
X43057085Y63234361D02*
X43028514Y63205789D01*
X43028514Y63205789D02*
X42999942Y63148647D01*
X42999942Y63148647D02*
X42999942Y63034361D01*
X42999942Y63034361D02*
X43028514Y62977218D01*
X43028514Y62977218D02*
X43057085Y62948647D01*
X43057085Y62948647D02*
X43114228Y62920075D01*
X42771371Y63462933D02*
X42771371Y63834361D01*
X42771371Y63834361D02*
X42999942Y63634361D01*
X42999942Y63634361D02*
X42999942Y63720076D01*
X42999942Y63720076D02*
X43028514Y63777218D01*
X43028514Y63777218D02*
X43057085Y63805790D01*
X43057085Y63805790D02*
X43114228Y63834361D01*
X43114228Y63834361D02*
X43257085Y63834361D01*
X43257085Y63834361D02*
X43314228Y63805790D01*
X43314228Y63805790D02*
X43342800Y63777218D01*
X43342800Y63777218D02*
X43371371Y63720076D01*
X43371371Y63720076D02*
X43371371Y63548647D01*
X43371371Y63548647D02*
X43342800Y63491504D01*
X43342800Y63491504D02*
X43314228Y63462933D01*
D10*
X82568207Y22350181D02*
X82234874Y22826372D01*
X81996779Y22350181D02*
X81996779Y23350181D01*
X81996779Y23350181D02*
X82377731Y23350181D01*
X82377731Y23350181D02*
X82472969Y23302562D01*
X82472969Y23302562D02*
X82520588Y23254943D01*
X82520588Y23254943D02*
X82568207Y23159705D01*
X82568207Y23159705D02*
X82568207Y23016848D01*
X82568207Y23016848D02*
X82520588Y22921610D01*
X82520588Y22921610D02*
X82472969Y22873991D01*
X82472969Y22873991D02*
X82377731Y22826372D01*
X82377731Y22826372D02*
X81996779Y22826372D01*
X82901541Y23350181D02*
X83568207Y22350181D01*
X83568207Y23350181D02*
X82901541Y22350181D01*
X83949160Y22350181D02*
X83949160Y23350181D01*
X83949160Y23350181D02*
X84187255Y23350181D01*
X84187255Y23350181D02*
X84330112Y23302562D01*
X84330112Y23302562D02*
X84425350Y23207324D01*
X84425350Y23207324D02*
X84472969Y23112086D01*
X84472969Y23112086D02*
X84520588Y22921610D01*
X84520588Y22921610D02*
X84520588Y22778753D01*
X84520588Y22778753D02*
X84472969Y22588277D01*
X84472969Y22588277D02*
X84425350Y22493039D01*
X84425350Y22493039D02*
X84330112Y22397800D01*
X84330112Y22397800D02*
X84187255Y22350181D01*
X84187255Y22350181D02*
X83949160Y22350181D01*
X82336779Y17410181D02*
X82336779Y18410181D01*
X82336779Y18410181D02*
X82908207Y17410181D01*
X82908207Y17410181D02*
X82908207Y18410181D01*
X83955826Y17505420D02*
X83908207Y17457800D01*
X83908207Y17457800D02*
X83765350Y17410181D01*
X83765350Y17410181D02*
X83670112Y17410181D01*
X83670112Y17410181D02*
X83527255Y17457800D01*
X83527255Y17457800D02*
X83432017Y17553039D01*
X83432017Y17553039D02*
X83384398Y17648277D01*
X83384398Y17648277D02*
X83336779Y17838753D01*
X83336779Y17838753D02*
X83336779Y17981610D01*
X83336779Y17981610D02*
X83384398Y18172086D01*
X83384398Y18172086D02*
X83432017Y18267324D01*
X83432017Y18267324D02*
X83527255Y18362562D01*
X83527255Y18362562D02*
X83670112Y18410181D01*
X83670112Y18410181D02*
X83765350Y18410181D01*
X83765350Y18410181D02*
X83908207Y18362562D01*
X83908207Y18362562D02*
X83955826Y18314943D01*
D13*
X42971371Y56165789D02*
X42971371Y56051504D01*
X42971371Y56051504D02*
X42999942Y55994361D01*
X42999942Y55994361D02*
X43028514Y55965789D01*
X43028514Y55965789D02*
X43114228Y55908647D01*
X43114228Y55908647D02*
X43228514Y55880075D01*
X43228514Y55880075D02*
X43457085Y55880075D01*
X43457085Y55880075D02*
X43514228Y55908647D01*
X43514228Y55908647D02*
X43542800Y55937218D01*
X43542800Y55937218D02*
X43571371Y55994361D01*
X43571371Y55994361D02*
X43571371Y56108647D01*
X43571371Y56108647D02*
X43542800Y56165789D01*
X43542800Y56165789D02*
X43514228Y56194361D01*
X43514228Y56194361D02*
X43457085Y56222932D01*
X43457085Y56222932D02*
X43314228Y56222932D01*
X43314228Y56222932D02*
X43257085Y56194361D01*
X43257085Y56194361D02*
X43228514Y56165789D01*
X43228514Y56165789D02*
X43199942Y56108647D01*
X43199942Y56108647D02*
X43199942Y55994361D01*
X43199942Y55994361D02*
X43228514Y55937218D01*
X43228514Y55937218D02*
X43257085Y55908647D01*
X43257085Y55908647D02*
X43314228Y55880075D01*
X43171371Y56737218D02*
X43571371Y56737218D01*
X42942800Y56594361D02*
X43371371Y56451504D01*
X43371371Y56451504D02*
X43371371Y56822933D01*
X66325789Y58258629D02*
X66325789Y57858629D01*
X66182931Y58487200D02*
X66040074Y58058629D01*
X66040074Y58058629D02*
X66411503Y58058629D01*
X66582932Y58458629D02*
X66982932Y58458629D01*
X66982932Y58458629D02*
X66725789Y57858629D01*
X63101371Y32541504D02*
X63101371Y32912932D01*
X63101371Y32912932D02*
X63329942Y32712932D01*
X63329942Y32712932D02*
X63329942Y32798647D01*
X63329942Y32798647D02*
X63358514Y32855789D01*
X63358514Y32855789D02*
X63387085Y32884361D01*
X63387085Y32884361D02*
X63444228Y32912932D01*
X63444228Y32912932D02*
X63587085Y32912932D01*
X63587085Y32912932D02*
X63644228Y32884361D01*
X63644228Y32884361D02*
X63672800Y32855789D01*
X63672800Y32855789D02*
X63701371Y32798647D01*
X63701371Y32798647D02*
X63701371Y32627218D01*
X63701371Y32627218D02*
X63672800Y32570075D01*
X63672800Y32570075D02*
X63644228Y32541504D01*
X63701371Y33484361D02*
X63701371Y33141504D01*
X63701371Y33312933D02*
X63101371Y33312933D01*
X63101371Y33312933D02*
X63187085Y33255790D01*
X63187085Y33255790D02*
X63244228Y33198647D01*
X63244228Y33198647D02*
X63272800Y33141504D01*
D10*
X82186779Y25190181D02*
X82186779Y26190181D01*
X82186779Y26190181D02*
X82758207Y25190181D01*
X82758207Y25190181D02*
X82758207Y26190181D01*
X83805826Y25285420D02*
X83758207Y25237800D01*
X83758207Y25237800D02*
X83615350Y25190181D01*
X83615350Y25190181D02*
X83520112Y25190181D01*
X83520112Y25190181D02*
X83377255Y25237800D01*
X83377255Y25237800D02*
X83282017Y25333039D01*
X83282017Y25333039D02*
X83234398Y25428277D01*
X83234398Y25428277D02*
X83186779Y25618753D01*
X83186779Y25618753D02*
X83186779Y25761610D01*
X83186779Y25761610D02*
X83234398Y25952086D01*
X83234398Y25952086D02*
X83282017Y26047324D01*
X83282017Y26047324D02*
X83377255Y26142562D01*
X83377255Y26142562D02*
X83520112Y26190181D01*
X83520112Y26190181D02*
X83615350Y26190181D01*
X83615350Y26190181D02*
X83758207Y26142562D01*
X83758207Y26142562D02*
X83805826Y26094943D01*
D13*
X36082931Y55468629D02*
X35740074Y55468629D01*
X35911503Y55468629D02*
X35911503Y56068629D01*
X35911503Y56068629D02*
X35854360Y55982915D01*
X35854360Y55982915D02*
X35797217Y55925772D01*
X35797217Y55925772D02*
X35740074Y55897200D01*
X60591371Y55824361D02*
X60591371Y55538647D01*
X60591371Y55538647D02*
X60877085Y55510075D01*
X60877085Y55510075D02*
X60848514Y55538647D01*
X60848514Y55538647D02*
X60819942Y55595789D01*
X60819942Y55595789D02*
X60819942Y55738647D01*
X60819942Y55738647D02*
X60848514Y55795789D01*
X60848514Y55795789D02*
X60877085Y55824361D01*
X60877085Y55824361D02*
X60934228Y55852932D01*
X60934228Y55852932D02*
X61077085Y55852932D01*
X61077085Y55852932D02*
X61134228Y55824361D01*
X61134228Y55824361D02*
X61162800Y55795789D01*
X61162800Y55795789D02*
X61191371Y55738647D01*
X61191371Y55738647D02*
X61191371Y55595789D01*
X61191371Y55595789D02*
X61162800Y55538647D01*
X61162800Y55538647D02*
X61134228Y55510075D01*
X60591371Y56224361D02*
X60591371Y56281504D01*
X60591371Y56281504D02*
X60619942Y56338647D01*
X60619942Y56338647D02*
X60648514Y56367218D01*
X60648514Y56367218D02*
X60705657Y56395790D01*
X60705657Y56395790D02*
X60819942Y56424361D01*
X60819942Y56424361D02*
X60962800Y56424361D01*
X60962800Y56424361D02*
X61077085Y56395790D01*
X61077085Y56395790D02*
X61134228Y56367218D01*
X61134228Y56367218D02*
X61162800Y56338647D01*
X61162800Y56338647D02*
X61191371Y56281504D01*
X61191371Y56281504D02*
X61191371Y56224361D01*
X61191371Y56224361D02*
X61162800Y56167218D01*
X61162800Y56167218D02*
X61134228Y56138647D01*
X61134228Y56138647D02*
X61077085Y56110076D01*
X61077085Y56110076D02*
X60962800Y56081504D01*
X60962800Y56081504D02*
X60819942Y56081504D01*
X60819942Y56081504D02*
X60705657Y56110076D01*
X60705657Y56110076D02*
X60648514Y56138647D01*
X60648514Y56138647D02*
X60619942Y56167218D01*
X60619942Y56167218D02*
X60591371Y56224361D01*
D10*
X81923922Y20930181D02*
X82495350Y20930181D01*
X82209636Y19930181D02*
X82209636Y20930181D01*
X82733446Y20930181D02*
X83400112Y19930181D01*
X83400112Y20930181D02*
X82733446Y19930181D01*
X83781065Y19930181D02*
X83781065Y20930181D01*
X83781065Y20930181D02*
X84019160Y20930181D01*
X84019160Y20930181D02*
X84162017Y20882562D01*
X84162017Y20882562D02*
X84257255Y20787324D01*
X84257255Y20787324D02*
X84304874Y20692086D01*
X84304874Y20692086D02*
X84352493Y20501610D01*
X84352493Y20501610D02*
X84352493Y20358753D01*
X84352493Y20358753D02*
X84304874Y20168277D01*
X84304874Y20168277D02*
X84257255Y20073039D01*
X84257255Y20073039D02*
X84162017Y19977800D01*
X84162017Y19977800D02*
X84019160Y19930181D01*
X84019160Y19930181D02*
X83781065Y19930181D01*
D13*
X63071371Y35131504D02*
X63071371Y35502932D01*
X63071371Y35502932D02*
X63299942Y35302932D01*
X63299942Y35302932D02*
X63299942Y35388647D01*
X63299942Y35388647D02*
X63328514Y35445789D01*
X63328514Y35445789D02*
X63357085Y35474361D01*
X63357085Y35474361D02*
X63414228Y35502932D01*
X63414228Y35502932D02*
X63557085Y35502932D01*
X63557085Y35502932D02*
X63614228Y35474361D01*
X63614228Y35474361D02*
X63642800Y35445789D01*
X63642800Y35445789D02*
X63671371Y35388647D01*
X63671371Y35388647D02*
X63671371Y35217218D01*
X63671371Y35217218D02*
X63642800Y35160075D01*
X63642800Y35160075D02*
X63614228Y35131504D01*
X63128514Y35731504D02*
X63099942Y35760076D01*
X63099942Y35760076D02*
X63071371Y35817218D01*
X63071371Y35817218D02*
X63071371Y35960076D01*
X63071371Y35960076D02*
X63099942Y36017218D01*
X63099942Y36017218D02*
X63128514Y36045790D01*
X63128514Y36045790D02*
X63185657Y36074361D01*
X63185657Y36074361D02*
X63242800Y36074361D01*
X63242800Y36074361D02*
X63328514Y36045790D01*
X63328514Y36045790D02*
X63671371Y35702933D01*
X63671371Y35702933D02*
X63671371Y36074361D01*
X42802931Y38058629D02*
X42460074Y38058629D01*
X42631503Y38058629D02*
X42631503Y38658629D01*
X42631503Y38658629D02*
X42574360Y38572915D01*
X42574360Y38572915D02*
X42517217Y38515772D01*
X42517217Y38515772D02*
X42460074Y38487200D01*
X43317218Y38658629D02*
X43202932Y38658629D01*
X43202932Y38658629D02*
X43145789Y38630058D01*
X43145789Y38630058D02*
X43117218Y38601486D01*
X43117218Y38601486D02*
X43060075Y38515772D01*
X43060075Y38515772D02*
X43031503Y38401486D01*
X43031503Y38401486D02*
X43031503Y38172915D01*
X43031503Y38172915D02*
X43060075Y38115772D01*
X43060075Y38115772D02*
X43088646Y38087200D01*
X43088646Y38087200D02*
X43145789Y38058629D01*
X43145789Y38058629D02*
X43260075Y38058629D01*
X43260075Y38058629D02*
X43317218Y38087200D01*
X43317218Y38087200D02*
X43345789Y38115772D01*
X43345789Y38115772D02*
X43374360Y38172915D01*
X43374360Y38172915D02*
X43374360Y38315772D01*
X43374360Y38315772D02*
X43345789Y38372915D01*
X43345789Y38372915D02*
X43317218Y38401486D01*
X43317218Y38401486D02*
X43260075Y38430058D01*
X43260075Y38430058D02*
X43145789Y38430058D01*
X43145789Y38430058D02*
X43088646Y38401486D01*
X43088646Y38401486D02*
X43060075Y38372915D01*
X43060075Y38372915D02*
X43031503Y38315772D01*
X60278646Y11248629D02*
X60278646Y11848629D01*
X60278646Y11848629D02*
X60421503Y11848629D01*
X60421503Y11848629D02*
X60507217Y11820058D01*
X60507217Y11820058D02*
X60564360Y11762915D01*
X60564360Y11762915D02*
X60592931Y11705772D01*
X60592931Y11705772D02*
X60621503Y11591486D01*
X60621503Y11591486D02*
X60621503Y11505772D01*
X60621503Y11505772D02*
X60592931Y11391486D01*
X60592931Y11391486D02*
X60564360Y11334343D01*
X60564360Y11334343D02*
X60507217Y11277200D01*
X60507217Y11277200D02*
X60421503Y11248629D01*
X60421503Y11248629D02*
X60278646Y11248629D01*
X60878646Y11477200D02*
X61335789Y11477200D01*
X61107217Y11248629D02*
X61107217Y11705772D01*
D14*
X1190149Y13262781D02*
X1380625Y13262781D01*
X1380625Y13262781D02*
X1475863Y13215162D01*
X1475863Y13215162D02*
X1571101Y13119924D01*
X1571101Y13119924D02*
X1618720Y12929448D01*
X1618720Y12929448D02*
X1618720Y12596115D01*
X1618720Y12596115D02*
X1571101Y12405639D01*
X1571101Y12405639D02*
X1475863Y12310400D01*
X1475863Y12310400D02*
X1380625Y12262781D01*
X1380625Y12262781D02*
X1190149Y12262781D01*
X1190149Y12262781D02*
X1094911Y12310400D01*
X1094911Y12310400D02*
X999673Y12405639D01*
X999673Y12405639D02*
X952054Y12596115D01*
X952054Y12596115D02*
X952054Y12929448D01*
X952054Y12929448D02*
X999673Y13119924D01*
X999673Y13119924D02*
X1094911Y13215162D01*
X1094911Y13215162D02*
X1190149Y13262781D01*
X2380625Y12786591D02*
X2047292Y12786591D01*
X2047292Y12262781D02*
X2047292Y13262781D01*
X2047292Y13262781D02*
X2523482Y13262781D01*
X3237768Y12786591D02*
X2904435Y12786591D01*
X2904435Y12262781D02*
X2904435Y13262781D01*
X2904435Y13262781D02*
X3380625Y13262781D01*
D13*
X58318646Y11218629D02*
X58318646Y11818629D01*
X58318646Y11818629D02*
X58461503Y11818629D01*
X58461503Y11818629D02*
X58547217Y11790058D01*
X58547217Y11790058D02*
X58604360Y11732915D01*
X58604360Y11732915D02*
X58632931Y11675772D01*
X58632931Y11675772D02*
X58661503Y11561486D01*
X58661503Y11561486D02*
X58661503Y11475772D01*
X58661503Y11475772D02*
X58632931Y11361486D01*
X58632931Y11361486D02*
X58604360Y11304343D01*
X58604360Y11304343D02*
X58547217Y11247200D01*
X58547217Y11247200D02*
X58461503Y11218629D01*
X58461503Y11218629D02*
X58318646Y11218629D01*
X58918646Y11447200D02*
X59375789Y11447200D01*
D10*
X20798095Y17315181D02*
X20798095Y18315181D01*
X21369523Y17315181D02*
X20940952Y17886610D01*
X21369523Y18315181D02*
X20798095Y17743753D01*
D13*
X42490074Y55831486D02*
X42518646Y55860058D01*
X42518646Y55860058D02*
X42575789Y55888629D01*
X42575789Y55888629D02*
X42718646Y55888629D01*
X42718646Y55888629D02*
X42775789Y55860058D01*
X42775789Y55860058D02*
X42804360Y55831486D01*
X42804360Y55831486D02*
X42832931Y55774343D01*
X42832931Y55774343D02*
X42832931Y55717200D01*
X42832931Y55717200D02*
X42804360Y55631486D01*
X42804360Y55631486D02*
X42461503Y55288629D01*
X42461503Y55288629D02*
X42832931Y55288629D01*
D10*
X82520588Y31082562D02*
X82425350Y31130181D01*
X82425350Y31130181D02*
X82282493Y31130181D01*
X82282493Y31130181D02*
X82139636Y31082562D01*
X82139636Y31082562D02*
X82044398Y30987324D01*
X82044398Y30987324D02*
X81996779Y30892086D01*
X81996779Y30892086D02*
X81949160Y30701610D01*
X81949160Y30701610D02*
X81949160Y30558753D01*
X81949160Y30558753D02*
X81996779Y30368277D01*
X81996779Y30368277D02*
X82044398Y30273039D01*
X82044398Y30273039D02*
X82139636Y30177800D01*
X82139636Y30177800D02*
X82282493Y30130181D01*
X82282493Y30130181D02*
X82377731Y30130181D01*
X82377731Y30130181D02*
X82520588Y30177800D01*
X82520588Y30177800D02*
X82568207Y30225420D01*
X82568207Y30225420D02*
X82568207Y30558753D01*
X82568207Y30558753D02*
X82377731Y30558753D01*
X82996779Y30130181D02*
X82996779Y31130181D01*
X82996779Y31130181D02*
X83568207Y30130181D01*
X83568207Y30130181D02*
X83568207Y31130181D01*
X84044398Y30130181D02*
X84044398Y31130181D01*
X84044398Y31130181D02*
X84282493Y31130181D01*
X84282493Y31130181D02*
X84425350Y31082562D01*
X84425350Y31082562D02*
X84520588Y30987324D01*
X84520588Y30987324D02*
X84568207Y30892086D01*
X84568207Y30892086D02*
X84615826Y30701610D01*
X84615826Y30701610D02*
X84615826Y30558753D01*
X84615826Y30558753D02*
X84568207Y30368277D01*
X84568207Y30368277D02*
X84520588Y30273039D01*
X84520588Y30273039D02*
X84425350Y30177800D01*
X84425350Y30177800D02*
X84282493Y30130181D01*
X84282493Y30130181D02*
X84044398Y30130181D01*
D14*
X8310149Y13322781D02*
X8500625Y13322781D01*
X8500625Y13322781D02*
X8595863Y13275162D01*
X8595863Y13275162D02*
X8691101Y13179924D01*
X8691101Y13179924D02*
X8738720Y12989448D01*
X8738720Y12989448D02*
X8738720Y12656115D01*
X8738720Y12656115D02*
X8691101Y12465639D01*
X8691101Y12465639D02*
X8595863Y12370400D01*
X8595863Y12370400D02*
X8500625Y12322781D01*
X8500625Y12322781D02*
X8310149Y12322781D01*
X8310149Y12322781D02*
X8214911Y12370400D01*
X8214911Y12370400D02*
X8119673Y12465639D01*
X8119673Y12465639D02*
X8072054Y12656115D01*
X8072054Y12656115D02*
X8072054Y12989448D01*
X8072054Y12989448D02*
X8119673Y13179924D01*
X8119673Y13179924D02*
X8214911Y13275162D01*
X8214911Y13275162D02*
X8310149Y13322781D01*
X9167292Y12322781D02*
X9167292Y13322781D01*
X9167292Y13322781D02*
X9738720Y12322781D01*
X9738720Y12322781D02*
X9738720Y13322781D01*
D13*
X66191503Y36238629D02*
X66562931Y36238629D01*
X66562931Y36238629D02*
X66362931Y36010058D01*
X66362931Y36010058D02*
X66448646Y36010058D01*
X66448646Y36010058D02*
X66505789Y35981486D01*
X66505789Y35981486D02*
X66534360Y35952915D01*
X66534360Y35952915D02*
X66562931Y35895772D01*
X66562931Y35895772D02*
X66562931Y35752915D01*
X66562931Y35752915D02*
X66534360Y35695772D01*
X66534360Y35695772D02*
X66505789Y35667200D01*
X66505789Y35667200D02*
X66448646Y35638629D01*
X66448646Y35638629D02*
X66277217Y35638629D01*
X66277217Y35638629D02*
X66220074Y35667200D01*
X66220074Y35667200D02*
X66191503Y35695772D01*
X66762932Y36238629D02*
X67134360Y36238629D01*
X67134360Y36238629D02*
X66934360Y36010058D01*
X66934360Y36010058D02*
X67020075Y36010058D01*
X67020075Y36010058D02*
X67077218Y35981486D01*
X67077218Y35981486D02*
X67105789Y35952915D01*
X67105789Y35952915D02*
X67134360Y35895772D01*
X67134360Y35895772D02*
X67134360Y35752915D01*
X67134360Y35752915D02*
X67105789Y35695772D01*
X67105789Y35695772D02*
X67077218Y35667200D01*
X67077218Y35667200D02*
X67020075Y35638629D01*
X67020075Y35638629D02*
X66848646Y35638629D01*
X66848646Y35638629D02*
X66791503Y35667200D01*
X66791503Y35667200D02*
X66762932Y35695772D01*
X60741371Y63585789D02*
X61141371Y63585789D01*
X60512800Y63442932D02*
X60941371Y63300075D01*
X60941371Y63300075D02*
X60941371Y63671504D01*
X61141371Y63928647D02*
X61141371Y64042933D01*
X61141371Y64042933D02*
X61112800Y64100076D01*
X61112800Y64100076D02*
X61084228Y64128647D01*
X61084228Y64128647D02*
X60998514Y64185790D01*
X60998514Y64185790D02*
X60884228Y64214361D01*
X60884228Y64214361D02*
X60655657Y64214361D01*
X60655657Y64214361D02*
X60598514Y64185790D01*
X60598514Y64185790D02*
X60569942Y64157218D01*
X60569942Y64157218D02*
X60541371Y64100076D01*
X60541371Y64100076D02*
X60541371Y63985790D01*
X60541371Y63985790D02*
X60569942Y63928647D01*
X60569942Y63928647D02*
X60598514Y63900076D01*
X60598514Y63900076D02*
X60655657Y63871504D01*
X60655657Y63871504D02*
X60798514Y63871504D01*
X60798514Y63871504D02*
X60855657Y63900076D01*
X60855657Y63900076D02*
X60884228Y63928647D01*
X60884228Y63928647D02*
X60912800Y63985790D01*
X60912800Y63985790D02*
X60912800Y64100076D01*
X60912800Y64100076D02*
X60884228Y64157218D01*
X60884228Y64157218D02*
X60855657Y64185790D01*
X60855657Y64185790D02*
X60798514Y64214361D01*
D10*
X64436666Y36315181D02*
X64436666Y35600896D01*
X64436666Y35600896D02*
X64389047Y35458039D01*
X64389047Y35458039D02*
X64293809Y35362800D01*
X64293809Y35362800D02*
X64150952Y35315181D01*
X64150952Y35315181D02*
X64055714Y35315181D01*
X65055714Y35886610D02*
X64960476Y35934229D01*
X64960476Y35934229D02*
X64912857Y35981848D01*
X64912857Y35981848D02*
X64865238Y36077086D01*
X64865238Y36077086D02*
X64865238Y36124705D01*
X64865238Y36124705D02*
X64912857Y36219943D01*
X64912857Y36219943D02*
X64960476Y36267562D01*
X64960476Y36267562D02*
X65055714Y36315181D01*
X65055714Y36315181D02*
X65246190Y36315181D01*
X65246190Y36315181D02*
X65341428Y36267562D01*
X65341428Y36267562D02*
X65389047Y36219943D01*
X65389047Y36219943D02*
X65436666Y36124705D01*
X65436666Y36124705D02*
X65436666Y36077086D01*
X65436666Y36077086D02*
X65389047Y35981848D01*
X65389047Y35981848D02*
X65341428Y35934229D01*
X65341428Y35934229D02*
X65246190Y35886610D01*
X65246190Y35886610D02*
X65055714Y35886610D01*
X65055714Y35886610D02*
X64960476Y35838991D01*
X64960476Y35838991D02*
X64912857Y35791372D01*
X64912857Y35791372D02*
X64865238Y35696134D01*
X64865238Y35696134D02*
X64865238Y35505658D01*
X64865238Y35505658D02*
X64912857Y35410420D01*
X64912857Y35410420D02*
X64960476Y35362800D01*
X64960476Y35362800D02*
X65055714Y35315181D01*
X65055714Y35315181D02*
X65246190Y35315181D01*
X65246190Y35315181D02*
X65341428Y35362800D01*
X65341428Y35362800D02*
X65389047Y35410420D01*
X65389047Y35410420D02*
X65436666Y35505658D01*
X65436666Y35505658D02*
X65436666Y35696134D01*
X65436666Y35696134D02*
X65389047Y35791372D01*
X65389047Y35791372D02*
X65341428Y35838991D01*
X65341428Y35838991D02*
X65246190Y35886610D01*
X23161905Y14145181D02*
X23161905Y15145181D01*
X23161905Y15145181D02*
X23400000Y15145181D01*
X23400000Y15145181D02*
X23542857Y15097562D01*
X23542857Y15097562D02*
X23638095Y15002324D01*
X23638095Y15002324D02*
X23685714Y14907086D01*
X23685714Y14907086D02*
X23733333Y14716610D01*
X23733333Y14716610D02*
X23733333Y14573753D01*
X23733333Y14573753D02*
X23685714Y14383277D01*
X23685714Y14383277D02*
X23638095Y14288039D01*
X23638095Y14288039D02*
X23542857Y14192800D01*
X23542857Y14192800D02*
X23400000Y14145181D01*
X23400000Y14145181D02*
X23161905Y14145181D01*
X24685714Y14145181D02*
X24114286Y14145181D01*
X24400000Y14145181D02*
X24400000Y15145181D01*
X24400000Y15145181D02*
X24304762Y15002324D01*
X24304762Y15002324D02*
X24209524Y14907086D01*
X24209524Y14907086D02*
X24114286Y14859467D01*
X51656666Y31135181D02*
X51656666Y30420896D01*
X51656666Y30420896D02*
X51609047Y30278039D01*
X51609047Y30278039D02*
X51513809Y30182800D01*
X51513809Y30182800D02*
X51370952Y30135181D01*
X51370952Y30135181D02*
X51275714Y30135181D01*
X52037619Y31135181D02*
X52704285Y31135181D01*
X52704285Y31135181D02*
X52275714Y30135181D01*
X32303333Y44260420D02*
X32255714Y44212800D01*
X32255714Y44212800D02*
X32112857Y44165181D01*
X32112857Y44165181D02*
X32017619Y44165181D01*
X32017619Y44165181D02*
X31874762Y44212800D01*
X31874762Y44212800D02*
X31779524Y44308039D01*
X31779524Y44308039D02*
X31731905Y44403277D01*
X31731905Y44403277D02*
X31684286Y44593753D01*
X31684286Y44593753D02*
X31684286Y44736610D01*
X31684286Y44736610D02*
X31731905Y44927086D01*
X31731905Y44927086D02*
X31779524Y45022324D01*
X31779524Y45022324D02*
X31874762Y45117562D01*
X31874762Y45117562D02*
X32017619Y45165181D01*
X32017619Y45165181D02*
X32112857Y45165181D01*
X32112857Y45165181D02*
X32255714Y45117562D01*
X32255714Y45117562D02*
X32303333Y45069943D01*
X33208095Y45165181D02*
X32731905Y45165181D01*
X32731905Y45165181D02*
X32684286Y44688991D01*
X32684286Y44688991D02*
X32731905Y44736610D01*
X32731905Y44736610D02*
X32827143Y44784229D01*
X32827143Y44784229D02*
X33065238Y44784229D01*
X33065238Y44784229D02*
X33160476Y44736610D01*
X33160476Y44736610D02*
X33208095Y44688991D01*
X33208095Y44688991D02*
X33255714Y44593753D01*
X33255714Y44593753D02*
X33255714Y44355658D01*
X33255714Y44355658D02*
X33208095Y44260420D01*
X33208095Y44260420D02*
X33160476Y44212800D01*
X33160476Y44212800D02*
X33065238Y44165181D01*
X33065238Y44165181D02*
X32827143Y44165181D01*
X32827143Y44165181D02*
X32731905Y44212800D01*
X32731905Y44212800D02*
X32684286Y44260420D01*
X59453333Y28970420D02*
X59405714Y28922800D01*
X59405714Y28922800D02*
X59262857Y28875181D01*
X59262857Y28875181D02*
X59167619Y28875181D01*
X59167619Y28875181D02*
X59024762Y28922800D01*
X59024762Y28922800D02*
X58929524Y29018039D01*
X58929524Y29018039D02*
X58881905Y29113277D01*
X58881905Y29113277D02*
X58834286Y29303753D01*
X58834286Y29303753D02*
X58834286Y29446610D01*
X58834286Y29446610D02*
X58881905Y29637086D01*
X58881905Y29637086D02*
X58929524Y29732324D01*
X58929524Y29732324D02*
X59024762Y29827562D01*
X59024762Y29827562D02*
X59167619Y29875181D01*
X59167619Y29875181D02*
X59262857Y29875181D01*
X59262857Y29875181D02*
X59405714Y29827562D01*
X59405714Y29827562D02*
X59453333Y29779943D01*
X59834286Y29779943D02*
X59881905Y29827562D01*
X59881905Y29827562D02*
X59977143Y29875181D01*
X59977143Y29875181D02*
X60215238Y29875181D01*
X60215238Y29875181D02*
X60310476Y29827562D01*
X60310476Y29827562D02*
X60358095Y29779943D01*
X60358095Y29779943D02*
X60405714Y29684705D01*
X60405714Y29684705D02*
X60405714Y29589467D01*
X60405714Y29589467D02*
X60358095Y29446610D01*
X60358095Y29446610D02*
X59786667Y28875181D01*
X59786667Y28875181D02*
X60405714Y28875181D01*
D13*
X73113333Y67832420D02*
X73113333Y68546705D01*
X73113333Y68546705D02*
X73160952Y68689562D01*
X73160952Y68689562D02*
X73256190Y68784800D01*
X73256190Y68784800D02*
X73399047Y68832420D01*
X73399047Y68832420D02*
X73494285Y68832420D01*
X72732380Y67832420D02*
X72113333Y67832420D01*
X72113333Y67832420D02*
X72446666Y68213372D01*
X72446666Y68213372D02*
X72303809Y68213372D01*
X72303809Y68213372D02*
X72208571Y68260991D01*
X72208571Y68260991D02*
X72160952Y68308610D01*
X72160952Y68308610D02*
X72113333Y68403848D01*
X72113333Y68403848D02*
X72113333Y68641943D01*
X72113333Y68641943D02*
X72160952Y68737181D01*
X72160952Y68737181D02*
X72208571Y68784800D01*
X72208571Y68784800D02*
X72303809Y68832420D01*
X72303809Y68832420D02*
X72589523Y68832420D01*
X72589523Y68832420D02*
X72684761Y68784800D01*
X72684761Y68784800D02*
X72732380Y68737181D01*
D10*
X78445180Y67148810D02*
X78968990Y67148810D01*
X78968990Y67148810D02*
X79064228Y67196429D01*
X79064228Y67196429D02*
X79111847Y67291667D01*
X79111847Y67291667D02*
X79111847Y67482143D01*
X79111847Y67482143D02*
X79064228Y67577381D01*
X78492800Y67148810D02*
X78445180Y67244048D01*
X78445180Y67244048D02*
X78445180Y67482143D01*
X78445180Y67482143D02*
X78492800Y67577381D01*
X78492800Y67577381D02*
X78588038Y67625000D01*
X78588038Y67625000D02*
X78683276Y67625000D01*
X78683276Y67625000D02*
X78778514Y67577381D01*
X78778514Y67577381D02*
X78826133Y67482143D01*
X78826133Y67482143D02*
X78826133Y67244048D01*
X78826133Y67244048D02*
X78873752Y67148810D01*
X79111847Y66244048D02*
X78445180Y66244048D01*
X79111847Y66672619D02*
X78588038Y66672619D01*
X78588038Y66672619D02*
X78492800Y66625000D01*
X78492800Y66625000D02*
X78445180Y66529762D01*
X78445180Y66529762D02*
X78445180Y66386905D01*
X78445180Y66386905D02*
X78492800Y66291667D01*
X78492800Y66291667D02*
X78540419Y66244048D01*
X78445180Y65339286D02*
X79445180Y65339286D01*
X78492800Y65339286D02*
X78445180Y65434524D01*
X78445180Y65434524D02*
X78445180Y65625000D01*
X78445180Y65625000D02*
X78492800Y65720238D01*
X78492800Y65720238D02*
X78540419Y65767857D01*
X78540419Y65767857D02*
X78635657Y65815476D01*
X78635657Y65815476D02*
X78921371Y65815476D01*
X78921371Y65815476D02*
X79016609Y65767857D01*
X79016609Y65767857D02*
X79064228Y65720238D01*
X79064228Y65720238D02*
X79111847Y65625000D01*
X79111847Y65625000D02*
X79111847Y65434524D01*
X79111847Y65434524D02*
X79064228Y65339286D01*
X78445180Y64863095D02*
X79111847Y64863095D01*
X79445180Y64863095D02*
X79397561Y64910714D01*
X79397561Y64910714D02*
X79349942Y64863095D01*
X79349942Y64863095D02*
X79397561Y64815476D01*
X79397561Y64815476D02*
X79445180Y64863095D01*
X79445180Y64863095D02*
X79349942Y64863095D01*
X78445180Y64244048D02*
X78492800Y64339286D01*
X78492800Y64339286D02*
X78540419Y64386905D01*
X78540419Y64386905D02*
X78635657Y64434524D01*
X78635657Y64434524D02*
X78921371Y64434524D01*
X78921371Y64434524D02*
X79016609Y64386905D01*
X79016609Y64386905D02*
X79064228Y64339286D01*
X79064228Y64339286D02*
X79111847Y64244048D01*
X79111847Y64244048D02*
X79111847Y64101191D01*
X79111847Y64101191D02*
X79064228Y64005953D01*
X79064228Y64005953D02*
X79016609Y63958334D01*
X79016609Y63958334D02*
X78921371Y63910715D01*
X78921371Y63910715D02*
X78635657Y63910715D01*
X78635657Y63910715D02*
X78540419Y63958334D01*
X78540419Y63958334D02*
X78492800Y64005953D01*
X78492800Y64005953D02*
X78445180Y64101191D01*
X78445180Y64101191D02*
X78445180Y64244048D01*
X78826133Y63482143D02*
X78826133Y62720238D01*
X79111847Y62244048D02*
X78254704Y62244048D01*
X78254704Y62244048D02*
X78159466Y62291667D01*
X78159466Y62291667D02*
X78111847Y62386905D01*
X78111847Y62386905D02*
X78111847Y62434524D01*
X79445180Y62244048D02*
X79397561Y62291667D01*
X79397561Y62291667D02*
X79349942Y62244048D01*
X79349942Y62244048D02*
X79397561Y62196429D01*
X79397561Y62196429D02*
X79445180Y62244048D01*
X79445180Y62244048D02*
X79349942Y62244048D01*
X78445180Y61339287D02*
X78968990Y61339287D01*
X78968990Y61339287D02*
X79064228Y61386906D01*
X79064228Y61386906D02*
X79111847Y61482144D01*
X79111847Y61482144D02*
X79111847Y61672620D01*
X79111847Y61672620D02*
X79064228Y61767858D01*
X78492800Y61339287D02*
X78445180Y61434525D01*
X78445180Y61434525D02*
X78445180Y61672620D01*
X78445180Y61672620D02*
X78492800Y61767858D01*
X78492800Y61767858D02*
X78588038Y61815477D01*
X78588038Y61815477D02*
X78683276Y61815477D01*
X78683276Y61815477D02*
X78778514Y61767858D01*
X78778514Y61767858D02*
X78826133Y61672620D01*
X78826133Y61672620D02*
X78826133Y61434525D01*
X78826133Y61434525D02*
X78873752Y61339287D01*
X78492800Y60434525D02*
X78445180Y60529763D01*
X78445180Y60529763D02*
X78445180Y60720239D01*
X78445180Y60720239D02*
X78492800Y60815477D01*
X78492800Y60815477D02*
X78540419Y60863096D01*
X78540419Y60863096D02*
X78635657Y60910715D01*
X78635657Y60910715D02*
X78921371Y60910715D01*
X78921371Y60910715D02*
X79016609Y60863096D01*
X79016609Y60863096D02*
X79064228Y60815477D01*
X79064228Y60815477D02*
X79111847Y60720239D01*
X79111847Y60720239D02*
X79111847Y60529763D01*
X79111847Y60529763D02*
X79064228Y60434525D01*
X78445180Y60005953D02*
X79445180Y60005953D01*
X78826133Y59910715D02*
X78445180Y59625001D01*
X79111847Y59625001D02*
X78730895Y60005953D01*
X23963333Y24775181D02*
X23630000Y25251372D01*
X23391905Y24775181D02*
X23391905Y25775181D01*
X23391905Y25775181D02*
X23772857Y25775181D01*
X23772857Y25775181D02*
X23868095Y25727562D01*
X23868095Y25727562D02*
X23915714Y25679943D01*
X23915714Y25679943D02*
X23963333Y25584705D01*
X23963333Y25584705D02*
X23963333Y25441848D01*
X23963333Y25441848D02*
X23915714Y25346610D01*
X23915714Y25346610D02*
X23868095Y25298991D01*
X23868095Y25298991D02*
X23772857Y25251372D01*
X23772857Y25251372D02*
X23391905Y25251372D01*
X24344286Y25679943D02*
X24391905Y25727562D01*
X24391905Y25727562D02*
X24487143Y25775181D01*
X24487143Y25775181D02*
X24725238Y25775181D01*
X24725238Y25775181D02*
X24820476Y25727562D01*
X24820476Y25727562D02*
X24868095Y25679943D01*
X24868095Y25679943D02*
X24915714Y25584705D01*
X24915714Y25584705D02*
X24915714Y25489467D01*
X24915714Y25489467D02*
X24868095Y25346610D01*
X24868095Y25346610D02*
X24296667Y24775181D01*
X24296667Y24775181D02*
X24915714Y24775181D01*
D13*
X2136666Y16212581D02*
X2136666Y15498296D01*
X2136666Y15498296D02*
X2089047Y15355439D01*
X2089047Y15355439D02*
X1993809Y15260200D01*
X1993809Y15260200D02*
X1850952Y15212581D01*
X1850952Y15212581D02*
X1755714Y15212581D01*
X3041428Y16212581D02*
X2850952Y16212581D01*
X2850952Y16212581D02*
X2755714Y16164962D01*
X2755714Y16164962D02*
X2708095Y16117343D01*
X2708095Y16117343D02*
X2612857Y15974486D01*
X2612857Y15974486D02*
X2565238Y15784010D01*
X2565238Y15784010D02*
X2565238Y15403058D01*
X2565238Y15403058D02*
X2612857Y15307820D01*
X2612857Y15307820D02*
X2660476Y15260200D01*
X2660476Y15260200D02*
X2755714Y15212581D01*
X2755714Y15212581D02*
X2946190Y15212581D01*
X2946190Y15212581D02*
X3041428Y15260200D01*
X3041428Y15260200D02*
X3089047Y15307820D01*
X3089047Y15307820D02*
X3136666Y15403058D01*
X3136666Y15403058D02*
X3136666Y15641153D01*
X3136666Y15641153D02*
X3089047Y15736391D01*
X3089047Y15736391D02*
X3041428Y15784010D01*
X3041428Y15784010D02*
X2946190Y15831629D01*
X2946190Y15831629D02*
X2755714Y15831629D01*
X2755714Y15831629D02*
X2660476Y15784010D01*
X2660476Y15784010D02*
X2612857Y15736391D01*
X2612857Y15736391D02*
X2565238Y15641153D01*
D10*
X2489524Y24085181D02*
X2489524Y25085181D01*
X2489524Y25085181D02*
X2727619Y25085181D01*
X2727619Y25085181D02*
X2870476Y25037562D01*
X2870476Y25037562D02*
X2965714Y24942324D01*
X2965714Y24942324D02*
X3013333Y24847086D01*
X3013333Y24847086D02*
X3060952Y24656610D01*
X3060952Y24656610D02*
X3060952Y24513753D01*
X3060952Y24513753D02*
X3013333Y24323277D01*
X3013333Y24323277D02*
X2965714Y24228039D01*
X2965714Y24228039D02*
X2870476Y24132800D01*
X2870476Y24132800D02*
X2727619Y24085181D01*
X2727619Y24085181D02*
X2489524Y24085181D01*
X4060952Y24180420D02*
X4013333Y24132800D01*
X4013333Y24132800D02*
X3870476Y24085181D01*
X3870476Y24085181D02*
X3775238Y24085181D01*
X3775238Y24085181D02*
X3632381Y24132800D01*
X3632381Y24132800D02*
X3537143Y24228039D01*
X3537143Y24228039D02*
X3489524Y24323277D01*
X3489524Y24323277D02*
X3441905Y24513753D01*
X3441905Y24513753D02*
X3441905Y24656610D01*
X3441905Y24656610D02*
X3489524Y24847086D01*
X3489524Y24847086D02*
X3537143Y24942324D01*
X3537143Y24942324D02*
X3632381Y25037562D01*
X3632381Y25037562D02*
X3775238Y25085181D01*
X3775238Y25085181D02*
X3870476Y25085181D01*
X3870476Y25085181D02*
X4013333Y25037562D01*
X4013333Y25037562D02*
X4060952Y24989943D01*
X4489524Y24466134D02*
X5251429Y24466134D01*
X6013333Y25085181D02*
X6013333Y24370896D01*
X6013333Y24370896D02*
X5965714Y24228039D01*
X5965714Y24228039D02*
X5870476Y24132800D01*
X5870476Y24132800D02*
X5727619Y24085181D01*
X5727619Y24085181D02*
X5632381Y24085181D01*
X6441905Y24370896D02*
X6918095Y24370896D01*
X6346667Y24085181D02*
X6680000Y25085181D01*
X6680000Y25085181D02*
X7013333Y24085181D01*
X7918095Y24180420D02*
X7870476Y24132800D01*
X7870476Y24132800D02*
X7727619Y24085181D01*
X7727619Y24085181D02*
X7632381Y24085181D01*
X7632381Y24085181D02*
X7489524Y24132800D01*
X7489524Y24132800D02*
X7394286Y24228039D01*
X7394286Y24228039D02*
X7346667Y24323277D01*
X7346667Y24323277D02*
X7299048Y24513753D01*
X7299048Y24513753D02*
X7299048Y24656610D01*
X7299048Y24656610D02*
X7346667Y24847086D01*
X7346667Y24847086D02*
X7394286Y24942324D01*
X7394286Y24942324D02*
X7489524Y25037562D01*
X7489524Y25037562D02*
X7632381Y25085181D01*
X7632381Y25085181D02*
X7727619Y25085181D01*
X7727619Y25085181D02*
X7870476Y25037562D01*
X7870476Y25037562D02*
X7918095Y24989943D01*
X8346667Y24085181D02*
X8346667Y25085181D01*
X8918095Y24085181D02*
X8489524Y24656610D01*
X8918095Y25085181D02*
X8346667Y24513753D01*
X77153628Y45223810D02*
X77629819Y45223810D01*
X76629819Y44890477D02*
X77153628Y45223810D01*
X77153628Y45223810D02*
X76629819Y45557143D01*
X77629819Y46414286D02*
X77629819Y45842858D01*
X77629819Y46128572D02*
X76629819Y46128572D01*
X76629819Y46128572D02*
X76772676Y46033334D01*
X76772676Y46033334D02*
X76867914Y45938096D01*
X76867914Y45938096D02*
X76915533Y45842858D01*
X70039580Y43994285D02*
X70087200Y43946666D01*
X70087200Y43946666D02*
X70134819Y43803809D01*
X70134819Y43803809D02*
X70134819Y43708571D01*
X70134819Y43708571D02*
X70087200Y43565714D01*
X70087200Y43565714D02*
X69991961Y43470476D01*
X69991961Y43470476D02*
X69896723Y43422857D01*
X69896723Y43422857D02*
X69706247Y43375238D01*
X69706247Y43375238D02*
X69563390Y43375238D01*
X69563390Y43375238D02*
X69372914Y43422857D01*
X69372914Y43422857D02*
X69277676Y43470476D01*
X69277676Y43470476D02*
X69182438Y43565714D01*
X69182438Y43565714D02*
X69134819Y43708571D01*
X69134819Y43708571D02*
X69134819Y43803809D01*
X69134819Y43803809D02*
X69182438Y43946666D01*
X69182438Y43946666D02*
X69230057Y43994285D01*
X70134819Y44422857D02*
X69468152Y44422857D01*
X69658628Y44422857D02*
X69563390Y44470476D01*
X69563390Y44470476D02*
X69515771Y44518095D01*
X69515771Y44518095D02*
X69468152Y44613333D01*
X69468152Y44613333D02*
X69468152Y44708571D01*
X69468152Y44946667D02*
X70134819Y45184762D01*
X69468152Y45422857D02*
X70134819Y45184762D01*
X70134819Y45184762D02*
X70372914Y45089524D01*
X70372914Y45089524D02*
X70420533Y45041905D01*
X70420533Y45041905D02*
X70468152Y44946667D01*
X70087200Y45756191D02*
X70134819Y45851429D01*
X70134819Y45851429D02*
X70134819Y46041905D01*
X70134819Y46041905D02*
X70087200Y46137143D01*
X70087200Y46137143D02*
X69991961Y46184762D01*
X69991961Y46184762D02*
X69944342Y46184762D01*
X69944342Y46184762D02*
X69849104Y46137143D01*
X69849104Y46137143D02*
X69801485Y46041905D01*
X69801485Y46041905D02*
X69801485Y45899048D01*
X69801485Y45899048D02*
X69753866Y45803810D01*
X69753866Y45803810D02*
X69658628Y45756191D01*
X69658628Y45756191D02*
X69611009Y45756191D01*
X69611009Y45756191D02*
X69515771Y45803810D01*
X69515771Y45803810D02*
X69468152Y45899048D01*
X69468152Y45899048D02*
X69468152Y46041905D01*
X69468152Y46041905D02*
X69515771Y46137143D01*
X69468152Y46470477D02*
X69468152Y46851429D01*
X69134819Y46613334D02*
X69991961Y46613334D01*
X69991961Y46613334D02*
X70087200Y46660953D01*
X70087200Y46660953D02*
X70134819Y46756191D01*
X70134819Y46756191D02*
X70134819Y46851429D01*
X70134819Y47613334D02*
X69611009Y47613334D01*
X69611009Y47613334D02*
X69515771Y47565715D01*
X69515771Y47565715D02*
X69468152Y47470477D01*
X69468152Y47470477D02*
X69468152Y47280001D01*
X69468152Y47280001D02*
X69515771Y47184763D01*
X70087200Y47613334D02*
X70134819Y47518096D01*
X70134819Y47518096D02*
X70134819Y47280001D01*
X70134819Y47280001D02*
X70087200Y47184763D01*
X70087200Y47184763D02*
X69991961Y47137144D01*
X69991961Y47137144D02*
X69896723Y47137144D01*
X69896723Y47137144D02*
X69801485Y47184763D01*
X69801485Y47184763D02*
X69753866Y47280001D01*
X69753866Y47280001D02*
X69753866Y47518096D01*
X69753866Y47518096D02*
X69706247Y47613334D01*
X70134819Y48232382D02*
X70087200Y48137144D01*
X70087200Y48137144D02*
X69991961Y48089525D01*
X69991961Y48089525D02*
X69134819Y48089525D01*
X69766905Y20055181D02*
X69766905Y21055181D01*
X69766905Y21055181D02*
X70005000Y21055181D01*
X70005000Y21055181D02*
X70147857Y21007562D01*
X70147857Y21007562D02*
X70243095Y20912324D01*
X70243095Y20912324D02*
X70290714Y20817086D01*
X70290714Y20817086D02*
X70338333Y20626610D01*
X70338333Y20626610D02*
X70338333Y20483753D01*
X70338333Y20483753D02*
X70290714Y20293277D01*
X70290714Y20293277D02*
X70243095Y20198039D01*
X70243095Y20198039D02*
X70147857Y20102800D01*
X70147857Y20102800D02*
X70005000Y20055181D01*
X70005000Y20055181D02*
X69766905Y20055181D01*
X70719286Y20959943D02*
X70766905Y21007562D01*
X70766905Y21007562D02*
X70862143Y21055181D01*
X70862143Y21055181D02*
X71100238Y21055181D01*
X71100238Y21055181D02*
X71195476Y21007562D01*
X71195476Y21007562D02*
X71243095Y20959943D01*
X71243095Y20959943D02*
X71290714Y20864705D01*
X71290714Y20864705D02*
X71290714Y20769467D01*
X71290714Y20769467D02*
X71243095Y20626610D01*
X71243095Y20626610D02*
X70671667Y20055181D01*
X70671667Y20055181D02*
X71290714Y20055181D01*
X75228095Y22535181D02*
X75228095Y23535181D01*
X75799523Y22535181D02*
X75370952Y23106610D01*
X75799523Y23535181D02*
X75228095Y22963753D01*
X53788333Y65825420D02*
X53740714Y65777800D01*
X53740714Y65777800D02*
X53597857Y65730181D01*
X53597857Y65730181D02*
X53502619Y65730181D01*
X53502619Y65730181D02*
X53359762Y65777800D01*
X53359762Y65777800D02*
X53264524Y65873039D01*
X53264524Y65873039D02*
X53216905Y65968277D01*
X53216905Y65968277D02*
X53169286Y66158753D01*
X53169286Y66158753D02*
X53169286Y66301610D01*
X53169286Y66301610D02*
X53216905Y66492086D01*
X53216905Y66492086D02*
X53264524Y66587324D01*
X53264524Y66587324D02*
X53359762Y66682562D01*
X53359762Y66682562D02*
X53502619Y66730181D01*
X53502619Y66730181D02*
X53597857Y66730181D01*
X53597857Y66730181D02*
X53740714Y66682562D01*
X53740714Y66682562D02*
X53788333Y66634943D01*
X54264524Y65730181D02*
X54455000Y65730181D01*
X54455000Y65730181D02*
X54550238Y65777800D01*
X54550238Y65777800D02*
X54597857Y65825420D01*
X54597857Y65825420D02*
X54693095Y65968277D01*
X54693095Y65968277D02*
X54740714Y66158753D01*
X54740714Y66158753D02*
X54740714Y66539705D01*
X54740714Y66539705D02*
X54693095Y66634943D01*
X54693095Y66634943D02*
X54645476Y66682562D01*
X54645476Y66682562D02*
X54550238Y66730181D01*
X54550238Y66730181D02*
X54359762Y66730181D01*
X54359762Y66730181D02*
X54264524Y66682562D01*
X54264524Y66682562D02*
X54216905Y66634943D01*
X54216905Y66634943D02*
X54169286Y66539705D01*
X54169286Y66539705D02*
X54169286Y66301610D01*
X54169286Y66301610D02*
X54216905Y66206372D01*
X54216905Y66206372D02*
X54264524Y66158753D01*
X54264524Y66158753D02*
X54359762Y66111134D01*
X54359762Y66111134D02*
X54550238Y66111134D01*
X54550238Y66111134D02*
X54645476Y66158753D01*
X54645476Y66158753D02*
X54693095Y66206372D01*
X54693095Y66206372D02*
X54740714Y66301610D01*
X51438095Y55455181D02*
X51438095Y54645658D01*
X51438095Y54645658D02*
X51485714Y54550420D01*
X51485714Y54550420D02*
X51533333Y54502800D01*
X51533333Y54502800D02*
X51628571Y54455181D01*
X51628571Y54455181D02*
X51819047Y54455181D01*
X51819047Y54455181D02*
X51914285Y54502800D01*
X51914285Y54502800D02*
X51961904Y54550420D01*
X51961904Y54550420D02*
X52009523Y54645658D01*
X52009523Y54645658D02*
X52009523Y55455181D01*
X53009523Y54455181D02*
X52438095Y54455181D01*
X52723809Y54455181D02*
X52723809Y55455181D01*
X52723809Y55455181D02*
X52628571Y55312324D01*
X52628571Y55312324D02*
X52533333Y55217086D01*
X52533333Y55217086D02*
X52438095Y55169467D01*
D13*
X47565713Y38787629D02*
X47565713Y39387629D01*
X47565713Y39387629D02*
X47794284Y39387629D01*
X47794284Y39387629D02*
X47851427Y39359058D01*
X47851427Y39359058D02*
X47879998Y39330486D01*
X47879998Y39330486D02*
X47908570Y39273343D01*
X47908570Y39273343D02*
X47908570Y39187629D01*
X47908570Y39187629D02*
X47879998Y39130486D01*
X47879998Y39130486D02*
X47851427Y39101915D01*
X47851427Y39101915D02*
X47794284Y39073343D01*
X47794284Y39073343D02*
X47565713Y39073343D01*
X48165713Y38787629D02*
X48165713Y39387629D01*
X48794284Y38844772D02*
X48765712Y38816200D01*
X48765712Y38816200D02*
X48679998Y38787629D01*
X48679998Y38787629D02*
X48622855Y38787629D01*
X48622855Y38787629D02*
X48537141Y38816200D01*
X48537141Y38816200D02*
X48479998Y38873343D01*
X48479998Y38873343D02*
X48451427Y38930486D01*
X48451427Y38930486D02*
X48422855Y39044772D01*
X48422855Y39044772D02*
X48422855Y39130486D01*
X48422855Y39130486D02*
X48451427Y39244772D01*
X48451427Y39244772D02*
X48479998Y39301915D01*
X48479998Y39301915D02*
X48537141Y39359058D01*
X48537141Y39359058D02*
X48622855Y39387629D01*
X48622855Y39387629D02*
X48679998Y39387629D01*
X48679998Y39387629D02*
X48765712Y39359058D01*
X48765712Y39359058D02*
X48794284Y39330486D01*
X48994284Y39387629D02*
X49365712Y39387629D01*
X49365712Y39387629D02*
X49165712Y39159058D01*
X49165712Y39159058D02*
X49251427Y39159058D01*
X49251427Y39159058D02*
X49308570Y39130486D01*
X49308570Y39130486D02*
X49337141Y39101915D01*
X49337141Y39101915D02*
X49365712Y39044772D01*
X49365712Y39044772D02*
X49365712Y38901915D01*
X49365712Y38901915D02*
X49337141Y38844772D01*
X49337141Y38844772D02*
X49308570Y38816200D01*
X49308570Y38816200D02*
X49251427Y38787629D01*
X49251427Y38787629D02*
X49079998Y38787629D01*
X49079998Y38787629D02*
X49022855Y38816200D01*
X49022855Y38816200D02*
X48994284Y38844772D01*
X49594284Y39330486D02*
X49622856Y39359058D01*
X49622856Y39359058D02*
X49679999Y39387629D01*
X49679999Y39387629D02*
X49822856Y39387629D01*
X49822856Y39387629D02*
X49879999Y39359058D01*
X49879999Y39359058D02*
X49908570Y39330486D01*
X49908570Y39330486D02*
X49937141Y39273343D01*
X49937141Y39273343D02*
X49937141Y39216200D01*
X49937141Y39216200D02*
X49908570Y39130486D01*
X49908570Y39130486D02*
X49565713Y38787629D01*
X49565713Y38787629D02*
X49937141Y38787629D01*
X50194285Y38787629D02*
X50194285Y39387629D01*
X50194285Y39387629D02*
X50394285Y38959058D01*
X50394285Y38959058D02*
X50594285Y39387629D01*
X50594285Y39387629D02*
X50594285Y38787629D01*
X50822856Y39387629D02*
X51222856Y38787629D01*
X51222856Y39387629D02*
X50822856Y38787629D01*
X51708571Y39387629D02*
X51594285Y39387629D01*
X51594285Y39387629D02*
X51537142Y39359058D01*
X51537142Y39359058D02*
X51508571Y39330486D01*
X51508571Y39330486D02*
X51451428Y39244772D01*
X51451428Y39244772D02*
X51422856Y39130486D01*
X51422856Y39130486D02*
X51422856Y38901915D01*
X51422856Y38901915D02*
X51451428Y38844772D01*
X51451428Y38844772D02*
X51479999Y38816200D01*
X51479999Y38816200D02*
X51537142Y38787629D01*
X51537142Y38787629D02*
X51651428Y38787629D01*
X51651428Y38787629D02*
X51708571Y38816200D01*
X51708571Y38816200D02*
X51737142Y38844772D01*
X51737142Y38844772D02*
X51765713Y38901915D01*
X51765713Y38901915D02*
X51765713Y39044772D01*
X51765713Y39044772D02*
X51737142Y39101915D01*
X51737142Y39101915D02*
X51708571Y39130486D01*
X51708571Y39130486D02*
X51651428Y39159058D01*
X51651428Y39159058D02*
X51537142Y39159058D01*
X51537142Y39159058D02*
X51479999Y39130486D01*
X51479999Y39130486D02*
X51451428Y39101915D01*
X51451428Y39101915D02*
X51422856Y39044772D01*
X52051428Y38787629D02*
X52165714Y38787629D01*
X52165714Y38787629D02*
X52222857Y38816200D01*
X52222857Y38816200D02*
X52251428Y38844772D01*
X52251428Y38844772D02*
X52308571Y38930486D01*
X52308571Y38930486D02*
X52337142Y39044772D01*
X52337142Y39044772D02*
X52337142Y39273343D01*
X52337142Y39273343D02*
X52308571Y39330486D01*
X52308571Y39330486D02*
X52280000Y39359058D01*
X52280000Y39359058D02*
X52222857Y39387629D01*
X52222857Y39387629D02*
X52108571Y39387629D01*
X52108571Y39387629D02*
X52051428Y39359058D01*
X52051428Y39359058D02*
X52022857Y39330486D01*
X52022857Y39330486D02*
X51994285Y39273343D01*
X51994285Y39273343D02*
X51994285Y39130486D01*
X51994285Y39130486D02*
X52022857Y39073343D01*
X52022857Y39073343D02*
X52051428Y39044772D01*
X52051428Y39044772D02*
X52108571Y39016200D01*
X52108571Y39016200D02*
X52222857Y39016200D01*
X52222857Y39016200D02*
X52280000Y39044772D01*
X52280000Y39044772D02*
X52308571Y39073343D01*
X52308571Y39073343D02*
X52337142Y39130486D01*
X52880000Y39387629D02*
X52594286Y39387629D01*
X52594286Y39387629D02*
X52565714Y39101915D01*
X52565714Y39101915D02*
X52594286Y39130486D01*
X52594286Y39130486D02*
X52651429Y39159058D01*
X52651429Y39159058D02*
X52794286Y39159058D01*
X52794286Y39159058D02*
X52851429Y39130486D01*
X52851429Y39130486D02*
X52880000Y39101915D01*
X52880000Y39101915D02*
X52908571Y39044772D01*
X52908571Y39044772D02*
X52908571Y38901915D01*
X52908571Y38901915D02*
X52880000Y38844772D01*
X52880000Y38844772D02*
X52851429Y38816200D01*
X52851429Y38816200D02*
X52794286Y38787629D01*
X52794286Y38787629D02*
X52651429Y38787629D01*
X52651429Y38787629D02*
X52594286Y38816200D01*
X52594286Y38816200D02*
X52565714Y38844772D01*
X53365715Y39101915D02*
X53165715Y39101915D01*
X53165715Y38787629D02*
X53165715Y39387629D01*
X53165715Y39387629D02*
X53451429Y39387629D01*
X53965715Y39387629D02*
X53680001Y39387629D01*
X53680001Y39387629D02*
X53651429Y39101915D01*
X53651429Y39101915D02*
X53680001Y39130486D01*
X53680001Y39130486D02*
X53737144Y39159058D01*
X53737144Y39159058D02*
X53880001Y39159058D01*
X53880001Y39159058D02*
X53937144Y39130486D01*
X53937144Y39130486D02*
X53965715Y39101915D01*
X53965715Y39101915D02*
X53994286Y39044772D01*
X53994286Y39044772D02*
X53994286Y38901915D01*
X53994286Y38901915D02*
X53965715Y38844772D01*
X53965715Y38844772D02*
X53937144Y38816200D01*
X53937144Y38816200D02*
X53880001Y38787629D01*
X53880001Y38787629D02*
X53737144Y38787629D01*
X53737144Y38787629D02*
X53680001Y38816200D01*
X53680001Y38816200D02*
X53651429Y38844772D01*
X54565715Y38787629D02*
X54222858Y38787629D01*
X54394287Y38787629D02*
X54394287Y39387629D01*
X54394287Y39387629D02*
X54337144Y39301915D01*
X54337144Y39301915D02*
X54280001Y39244772D01*
X54280001Y39244772D02*
X54222858Y39216200D01*
X54794287Y39330486D02*
X54822859Y39359058D01*
X54822859Y39359058D02*
X54880002Y39387629D01*
X54880002Y39387629D02*
X55022859Y39387629D01*
X55022859Y39387629D02*
X55080002Y39359058D01*
X55080002Y39359058D02*
X55108573Y39330486D01*
X55108573Y39330486D02*
X55137144Y39273343D01*
X55137144Y39273343D02*
X55137144Y39216200D01*
X55137144Y39216200D02*
X55108573Y39130486D01*
X55108573Y39130486D02*
X54765716Y38787629D01*
X54765716Y38787629D02*
X55137144Y38787629D01*
X55394288Y38787629D02*
X55394288Y39387629D01*
X55394288Y39101915D02*
X55737145Y39101915D01*
X55737145Y38787629D02*
X55737145Y39387629D01*
X55937144Y39387629D02*
X56280002Y39387629D01*
X56108573Y38787629D02*
X56108573Y39387629D01*
D10*
X11286666Y53165181D02*
X11286666Y52450896D01*
X11286666Y52450896D02*
X11239047Y52308039D01*
X11239047Y52308039D02*
X11143809Y52212800D01*
X11143809Y52212800D02*
X11000952Y52165181D01*
X11000952Y52165181D02*
X10905714Y52165181D01*
X11762857Y52165181D02*
X11762857Y53165181D01*
X11762857Y53165181D02*
X12143809Y53165181D01*
X12143809Y53165181D02*
X12239047Y53117562D01*
X12239047Y53117562D02*
X12286666Y53069943D01*
X12286666Y53069943D02*
X12334285Y52974705D01*
X12334285Y52974705D02*
X12334285Y52831848D01*
X12334285Y52831848D02*
X12286666Y52736610D01*
X12286666Y52736610D02*
X12239047Y52688991D01*
X12239047Y52688991D02*
X12143809Y52641372D01*
X12143809Y52641372D02*
X11762857Y52641372D01*
X12715238Y53069943D02*
X12762857Y53117562D01*
X12762857Y53117562D02*
X12858095Y53165181D01*
X12858095Y53165181D02*
X13096190Y53165181D01*
X13096190Y53165181D02*
X13191428Y53117562D01*
X13191428Y53117562D02*
X13239047Y53069943D01*
X13239047Y53069943D02*
X13286666Y52974705D01*
X13286666Y52974705D02*
X13286666Y52879467D01*
X13286666Y52879467D02*
X13239047Y52736610D01*
X13239047Y52736610D02*
X12667619Y52165181D01*
X12667619Y52165181D02*
X13286666Y52165181D01*
X67986666Y4195181D02*
X67986666Y3480896D01*
X67986666Y3480896D02*
X67939047Y3338039D01*
X67939047Y3338039D02*
X67843809Y3242800D01*
X67843809Y3242800D02*
X67700952Y3195181D01*
X67700952Y3195181D02*
X67605714Y3195181D01*
X68986666Y3195181D02*
X68415238Y3195181D01*
X68700952Y3195181D02*
X68700952Y4195181D01*
X68700952Y4195181D02*
X68605714Y4052324D01*
X68605714Y4052324D02*
X68510476Y3957086D01*
X68510476Y3957086D02*
X68415238Y3909467D01*
X58058095Y16005181D02*
X58058095Y15195658D01*
X58058095Y15195658D02*
X58105714Y15100420D01*
X58105714Y15100420D02*
X58153333Y15052800D01*
X58153333Y15052800D02*
X58248571Y15005181D01*
X58248571Y15005181D02*
X58439047Y15005181D01*
X58439047Y15005181D02*
X58534285Y15052800D01*
X58534285Y15052800D02*
X58581904Y15100420D01*
X58581904Y15100420D02*
X58629523Y15195658D01*
X58629523Y15195658D02*
X58629523Y16005181D01*
X59058095Y15052800D02*
X59200952Y15005181D01*
X59200952Y15005181D02*
X59439047Y15005181D01*
X59439047Y15005181D02*
X59534285Y15052800D01*
X59534285Y15052800D02*
X59581904Y15100420D01*
X59581904Y15100420D02*
X59629523Y15195658D01*
X59629523Y15195658D02*
X59629523Y15290896D01*
X59629523Y15290896D02*
X59581904Y15386134D01*
X59581904Y15386134D02*
X59534285Y15433753D01*
X59534285Y15433753D02*
X59439047Y15481372D01*
X59439047Y15481372D02*
X59248571Y15528991D01*
X59248571Y15528991D02*
X59153333Y15576610D01*
X59153333Y15576610D02*
X59105714Y15624229D01*
X59105714Y15624229D02*
X59058095Y15719467D01*
X59058095Y15719467D02*
X59058095Y15814705D01*
X59058095Y15814705D02*
X59105714Y15909943D01*
X59105714Y15909943D02*
X59153333Y15957562D01*
X59153333Y15957562D02*
X59248571Y16005181D01*
X59248571Y16005181D02*
X59486666Y16005181D01*
X59486666Y16005181D02*
X59629523Y15957562D01*
X60391428Y15528991D02*
X60534285Y15481372D01*
X60534285Y15481372D02*
X60581904Y15433753D01*
X60581904Y15433753D02*
X60629523Y15338515D01*
X60629523Y15338515D02*
X60629523Y15195658D01*
X60629523Y15195658D02*
X60581904Y15100420D01*
X60581904Y15100420D02*
X60534285Y15052800D01*
X60534285Y15052800D02*
X60439047Y15005181D01*
X60439047Y15005181D02*
X60058095Y15005181D01*
X60058095Y15005181D02*
X60058095Y16005181D01*
X60058095Y16005181D02*
X60391428Y16005181D01*
X60391428Y16005181D02*
X60486666Y15957562D01*
X60486666Y15957562D02*
X60534285Y15909943D01*
X60534285Y15909943D02*
X60581904Y15814705D01*
X60581904Y15814705D02*
X60581904Y15719467D01*
X60581904Y15719467D02*
X60534285Y15624229D01*
X60534285Y15624229D02*
X60486666Y15576610D01*
X60486666Y15576610D02*
X60391428Y15528991D01*
X60391428Y15528991D02*
X60058095Y15528991D01*
D13*
X10448095Y9520200D02*
X10590952Y9472581D01*
X10590952Y9472581D02*
X10829047Y9472581D01*
X10829047Y9472581D02*
X10924285Y9520200D01*
X10924285Y9520200D02*
X10971904Y9567820D01*
X10971904Y9567820D02*
X11019523Y9663058D01*
X11019523Y9663058D02*
X11019523Y9758296D01*
X11019523Y9758296D02*
X10971904Y9853534D01*
X10971904Y9853534D02*
X10924285Y9901153D01*
X10924285Y9901153D02*
X10829047Y9948772D01*
X10829047Y9948772D02*
X10638571Y9996391D01*
X10638571Y9996391D02*
X10543333Y10044010D01*
X10543333Y10044010D02*
X10495714Y10091629D01*
X10495714Y10091629D02*
X10448095Y10186867D01*
X10448095Y10186867D02*
X10448095Y10282105D01*
X10448095Y10282105D02*
X10495714Y10377343D01*
X10495714Y10377343D02*
X10543333Y10424962D01*
X10543333Y10424962D02*
X10638571Y10472581D01*
X10638571Y10472581D02*
X10876666Y10472581D01*
X10876666Y10472581D02*
X11019523Y10424962D01*
X11971904Y9472581D02*
X11400476Y9472581D01*
X11686190Y9472581D02*
X11686190Y10472581D01*
X11686190Y10472581D02*
X11590952Y10329724D01*
X11590952Y10329724D02*
X11495714Y10234486D01*
X11495714Y10234486D02*
X11400476Y10186867D01*
D10*
X5042857Y7102800D02*
X5185714Y7055181D01*
X5185714Y7055181D02*
X5423809Y7055181D01*
X5423809Y7055181D02*
X5519047Y7102800D01*
X5519047Y7102800D02*
X5566666Y7150420D01*
X5566666Y7150420D02*
X5614285Y7245658D01*
X5614285Y7245658D02*
X5614285Y7340896D01*
X5614285Y7340896D02*
X5566666Y7436134D01*
X5566666Y7436134D02*
X5519047Y7483753D01*
X5519047Y7483753D02*
X5423809Y7531372D01*
X5423809Y7531372D02*
X5233333Y7578991D01*
X5233333Y7578991D02*
X5138095Y7626610D01*
X5138095Y7626610D02*
X5090476Y7674229D01*
X5090476Y7674229D02*
X5042857Y7769467D01*
X5042857Y7769467D02*
X5042857Y7864705D01*
X5042857Y7864705D02*
X5090476Y7959943D01*
X5090476Y7959943D02*
X5138095Y8007562D01*
X5138095Y8007562D02*
X5233333Y8055181D01*
X5233333Y8055181D02*
X5471428Y8055181D01*
X5471428Y8055181D02*
X5614285Y8007562D01*
X5947619Y8055181D02*
X6185714Y7055181D01*
X6185714Y7055181D02*
X6376190Y7769467D01*
X6376190Y7769467D02*
X6566666Y7055181D01*
X6566666Y7055181D02*
X6804762Y8055181D01*
X79426666Y16135181D02*
X79426666Y15420896D01*
X79426666Y15420896D02*
X79379047Y15278039D01*
X79379047Y15278039D02*
X79283809Y15182800D01*
X79283809Y15182800D02*
X79140952Y15135181D01*
X79140952Y15135181D02*
X79045714Y15135181D01*
X80379047Y16135181D02*
X79902857Y16135181D01*
X79902857Y16135181D02*
X79855238Y15658991D01*
X79855238Y15658991D02*
X79902857Y15706610D01*
X79902857Y15706610D02*
X79998095Y15754229D01*
X79998095Y15754229D02*
X80236190Y15754229D01*
X80236190Y15754229D02*
X80331428Y15706610D01*
X80331428Y15706610D02*
X80379047Y15658991D01*
X80379047Y15658991D02*
X80426666Y15563753D01*
X80426666Y15563753D02*
X80426666Y15325658D01*
X80426666Y15325658D02*
X80379047Y15230420D01*
X80379047Y15230420D02*
X80331428Y15182800D01*
X80331428Y15182800D02*
X80236190Y15135181D01*
X80236190Y15135181D02*
X79998095Y15135181D01*
X79998095Y15135181D02*
X79902857Y15182800D01*
X79902857Y15182800D02*
X79855238Y15230420D01*
X78094762Y33965181D02*
X78094762Y33155658D01*
X78094762Y33155658D02*
X78142381Y33060420D01*
X78142381Y33060420D02*
X78190000Y33012800D01*
X78190000Y33012800D02*
X78285238Y32965181D01*
X78285238Y32965181D02*
X78475714Y32965181D01*
X78475714Y32965181D02*
X78570952Y33012800D01*
X78570952Y33012800D02*
X78618571Y33060420D01*
X78618571Y33060420D02*
X78666190Y33155658D01*
X78666190Y33155658D02*
X78666190Y33965181D01*
X79094762Y33250896D02*
X79570952Y33250896D01*
X78999524Y32965181D02*
X79332857Y33965181D01*
X79332857Y33965181D02*
X79666190Y32965181D01*
X80570952Y32965181D02*
X80237619Y33441372D01*
X79999524Y32965181D02*
X79999524Y33965181D01*
X79999524Y33965181D02*
X80380476Y33965181D01*
X80380476Y33965181D02*
X80475714Y33917562D01*
X80475714Y33917562D02*
X80523333Y33869943D01*
X80523333Y33869943D02*
X80570952Y33774705D01*
X80570952Y33774705D02*
X80570952Y33631848D01*
X80570952Y33631848D02*
X80523333Y33536610D01*
X80523333Y33536610D02*
X80475714Y33488991D01*
X80475714Y33488991D02*
X80380476Y33441372D01*
X80380476Y33441372D02*
X79999524Y33441372D01*
X80856667Y33965181D02*
X81428095Y33965181D01*
X81142381Y32965181D02*
X81142381Y33965181D01*
X63396666Y60335181D02*
X63396666Y59620896D01*
X63396666Y59620896D02*
X63349047Y59478039D01*
X63349047Y59478039D02*
X63253809Y59382800D01*
X63253809Y59382800D02*
X63110952Y59335181D01*
X63110952Y59335181D02*
X63015714Y59335181D01*
X63920476Y59335181D02*
X64110952Y59335181D01*
X64110952Y59335181D02*
X64206190Y59382800D01*
X64206190Y59382800D02*
X64253809Y59430420D01*
X64253809Y59430420D02*
X64349047Y59573277D01*
X64349047Y59573277D02*
X64396666Y59763753D01*
X64396666Y59763753D02*
X64396666Y60144705D01*
X64396666Y60144705D02*
X64349047Y60239943D01*
X64349047Y60239943D02*
X64301428Y60287562D01*
X64301428Y60287562D02*
X64206190Y60335181D01*
X64206190Y60335181D02*
X64015714Y60335181D01*
X64015714Y60335181D02*
X63920476Y60287562D01*
X63920476Y60287562D02*
X63872857Y60239943D01*
X63872857Y60239943D02*
X63825238Y60144705D01*
X63825238Y60144705D02*
X63825238Y59906610D01*
X63825238Y59906610D02*
X63872857Y59811372D01*
X63872857Y59811372D02*
X63920476Y59763753D01*
X63920476Y59763753D02*
X64015714Y59716134D01*
X64015714Y59716134D02*
X64206190Y59716134D01*
X64206190Y59716134D02*
X64301428Y59763753D01*
X64301428Y59763753D02*
X64349047Y59811372D01*
X64349047Y59811372D02*
X64396666Y59906610D01*
X39240476Y58945181D02*
X39240476Y58230896D01*
X39240476Y58230896D02*
X39192857Y58088039D01*
X39192857Y58088039D02*
X39097619Y57992800D01*
X39097619Y57992800D02*
X38954762Y57945181D01*
X38954762Y57945181D02*
X38859524Y57945181D01*
X40240476Y57945181D02*
X39669048Y57945181D01*
X39954762Y57945181D02*
X39954762Y58945181D01*
X39954762Y58945181D02*
X39859524Y58802324D01*
X39859524Y58802324D02*
X39764286Y58707086D01*
X39764286Y58707086D02*
X39669048Y58659467D01*
X41145238Y58945181D02*
X40669048Y58945181D01*
X40669048Y58945181D02*
X40621429Y58468991D01*
X40621429Y58468991D02*
X40669048Y58516610D01*
X40669048Y58516610D02*
X40764286Y58564229D01*
X40764286Y58564229D02*
X41002381Y58564229D01*
X41002381Y58564229D02*
X41097619Y58516610D01*
X41097619Y58516610D02*
X41145238Y58468991D01*
X41145238Y58468991D02*
X41192857Y58373753D01*
X41192857Y58373753D02*
X41192857Y58135658D01*
X41192857Y58135658D02*
X41145238Y58040420D01*
X41145238Y58040420D02*
X41097619Y57992800D01*
X41097619Y57992800D02*
X41002381Y57945181D01*
X41002381Y57945181D02*
X40764286Y57945181D01*
X40764286Y57945181D02*
X40669048Y57992800D01*
X40669048Y57992800D02*
X40621429Y58040420D01*
X30323333Y59375181D02*
X29990000Y59851372D01*
X29751905Y59375181D02*
X29751905Y60375181D01*
X29751905Y60375181D02*
X30132857Y60375181D01*
X30132857Y60375181D02*
X30228095Y60327562D01*
X30228095Y60327562D02*
X30275714Y60279943D01*
X30275714Y60279943D02*
X30323333Y60184705D01*
X30323333Y60184705D02*
X30323333Y60041848D01*
X30323333Y60041848D02*
X30275714Y59946610D01*
X30275714Y59946610D02*
X30228095Y59898991D01*
X30228095Y59898991D02*
X30132857Y59851372D01*
X30132857Y59851372D02*
X29751905Y59851372D01*
X31275714Y59375181D02*
X30704286Y59375181D01*
X30990000Y59375181D02*
X30990000Y60375181D01*
X30990000Y60375181D02*
X30894762Y60232324D01*
X30894762Y60232324D02*
X30799524Y60137086D01*
X30799524Y60137086D02*
X30704286Y60089467D01*
X79823333Y49950420D02*
X79775714Y49902800D01*
X79775714Y49902800D02*
X79632857Y49855181D01*
X79632857Y49855181D02*
X79537619Y49855181D01*
X79537619Y49855181D02*
X79394762Y49902800D01*
X79394762Y49902800D02*
X79299524Y49998039D01*
X79299524Y49998039D02*
X79251905Y50093277D01*
X79251905Y50093277D02*
X79204286Y50283753D01*
X79204286Y50283753D02*
X79204286Y50426610D01*
X79204286Y50426610D02*
X79251905Y50617086D01*
X79251905Y50617086D02*
X79299524Y50712324D01*
X79299524Y50712324D02*
X79394762Y50807562D01*
X79394762Y50807562D02*
X79537619Y50855181D01*
X79537619Y50855181D02*
X79632857Y50855181D01*
X79632857Y50855181D02*
X79775714Y50807562D01*
X79775714Y50807562D02*
X79823333Y50759943D01*
X80394762Y50426610D02*
X80299524Y50474229D01*
X80299524Y50474229D02*
X80251905Y50521848D01*
X80251905Y50521848D02*
X80204286Y50617086D01*
X80204286Y50617086D02*
X80204286Y50664705D01*
X80204286Y50664705D02*
X80251905Y50759943D01*
X80251905Y50759943D02*
X80299524Y50807562D01*
X80299524Y50807562D02*
X80394762Y50855181D01*
X80394762Y50855181D02*
X80585238Y50855181D01*
X80585238Y50855181D02*
X80680476Y50807562D01*
X80680476Y50807562D02*
X80728095Y50759943D01*
X80728095Y50759943D02*
X80775714Y50664705D01*
X80775714Y50664705D02*
X80775714Y50617086D01*
X80775714Y50617086D02*
X80728095Y50521848D01*
X80728095Y50521848D02*
X80680476Y50474229D01*
X80680476Y50474229D02*
X80585238Y50426610D01*
X80585238Y50426610D02*
X80394762Y50426610D01*
X80394762Y50426610D02*
X80299524Y50378991D01*
X80299524Y50378991D02*
X80251905Y50331372D01*
X80251905Y50331372D02*
X80204286Y50236134D01*
X80204286Y50236134D02*
X80204286Y50045658D01*
X80204286Y50045658D02*
X80251905Y49950420D01*
X80251905Y49950420D02*
X80299524Y49902800D01*
X80299524Y49902800D02*
X80394762Y49855181D01*
X80394762Y49855181D02*
X80585238Y49855181D01*
X80585238Y49855181D02*
X80680476Y49902800D01*
X80680476Y49902800D02*
X80728095Y49950420D01*
X80728095Y49950420D02*
X80775714Y50045658D01*
X80775714Y50045658D02*
X80775714Y50236134D01*
X80775714Y50236134D02*
X80728095Y50331372D01*
X80728095Y50331372D02*
X80680476Y50378991D01*
X80680476Y50378991D02*
X80585238Y50426610D01*
X35086666Y14275181D02*
X35086666Y13560896D01*
X35086666Y13560896D02*
X35039047Y13418039D01*
X35039047Y13418039D02*
X34943809Y13322800D01*
X34943809Y13322800D02*
X34800952Y13275181D01*
X34800952Y13275181D02*
X34705714Y13275181D01*
X35991428Y13941848D02*
X35991428Y13275181D01*
X35753333Y14322800D02*
X35515238Y13608515D01*
X35515238Y13608515D02*
X36134285Y13608515D01*
X33241905Y7865181D02*
X33241905Y8865181D01*
X33241905Y8865181D02*
X33480000Y8865181D01*
X33480000Y8865181D02*
X33622857Y8817562D01*
X33622857Y8817562D02*
X33718095Y8722324D01*
X33718095Y8722324D02*
X33765714Y8627086D01*
X33765714Y8627086D02*
X33813333Y8436610D01*
X33813333Y8436610D02*
X33813333Y8293753D01*
X33813333Y8293753D02*
X33765714Y8103277D01*
X33765714Y8103277D02*
X33718095Y8008039D01*
X33718095Y8008039D02*
X33622857Y7912800D01*
X33622857Y7912800D02*
X33480000Y7865181D01*
X33480000Y7865181D02*
X33241905Y7865181D01*
X34241905Y8388991D02*
X34575238Y8388991D01*
X34718095Y7865181D02*
X34241905Y7865181D01*
X34241905Y7865181D02*
X34241905Y8865181D01*
X34241905Y8865181D02*
X34718095Y8865181D01*
X35480000Y8388991D02*
X35622857Y8341372D01*
X35622857Y8341372D02*
X35670476Y8293753D01*
X35670476Y8293753D02*
X35718095Y8198515D01*
X35718095Y8198515D02*
X35718095Y8055658D01*
X35718095Y8055658D02*
X35670476Y7960420D01*
X35670476Y7960420D02*
X35622857Y7912800D01*
X35622857Y7912800D02*
X35527619Y7865181D01*
X35527619Y7865181D02*
X35146667Y7865181D01*
X35146667Y7865181D02*
X35146667Y8865181D01*
X35146667Y8865181D02*
X35480000Y8865181D01*
X35480000Y8865181D02*
X35575238Y8817562D01*
X35575238Y8817562D02*
X35622857Y8769943D01*
X35622857Y8769943D02*
X35670476Y8674705D01*
X35670476Y8674705D02*
X35670476Y8579467D01*
X35670476Y8579467D02*
X35622857Y8484229D01*
X35622857Y8484229D02*
X35575238Y8436610D01*
X35575238Y8436610D02*
X35480000Y8388991D01*
X35480000Y8388991D02*
X35146667Y8388991D01*
X36146667Y8865181D02*
X36146667Y8055658D01*
X36146667Y8055658D02*
X36194286Y7960420D01*
X36194286Y7960420D02*
X36241905Y7912800D01*
X36241905Y7912800D02*
X36337143Y7865181D01*
X36337143Y7865181D02*
X36527619Y7865181D01*
X36527619Y7865181D02*
X36622857Y7912800D01*
X36622857Y7912800D02*
X36670476Y7960420D01*
X36670476Y7960420D02*
X36718095Y8055658D01*
X36718095Y8055658D02*
X36718095Y8865181D01*
X37718095Y8817562D02*
X37622857Y8865181D01*
X37622857Y8865181D02*
X37480000Y8865181D01*
X37480000Y8865181D02*
X37337143Y8817562D01*
X37337143Y8817562D02*
X37241905Y8722324D01*
X37241905Y8722324D02*
X37194286Y8627086D01*
X37194286Y8627086D02*
X37146667Y8436610D01*
X37146667Y8436610D02*
X37146667Y8293753D01*
X37146667Y8293753D02*
X37194286Y8103277D01*
X37194286Y8103277D02*
X37241905Y8008039D01*
X37241905Y8008039D02*
X37337143Y7912800D01*
X37337143Y7912800D02*
X37480000Y7865181D01*
X37480000Y7865181D02*
X37575238Y7865181D01*
X37575238Y7865181D02*
X37718095Y7912800D01*
X37718095Y7912800D02*
X37765714Y7960420D01*
X37765714Y7960420D02*
X37765714Y8293753D01*
X37765714Y8293753D02*
X37575238Y8293753D01*
D13*
X2417143Y45150200D02*
X2560000Y45102581D01*
X2560000Y45102581D02*
X2798095Y45102581D01*
X2798095Y45102581D02*
X2893333Y45150200D01*
X2893333Y45150200D02*
X2940952Y45197820D01*
X2940952Y45197820D02*
X2988571Y45293058D01*
X2988571Y45293058D02*
X2988571Y45388296D01*
X2988571Y45388296D02*
X2940952Y45483534D01*
X2940952Y45483534D02*
X2893333Y45531153D01*
X2893333Y45531153D02*
X2798095Y45578772D01*
X2798095Y45578772D02*
X2607619Y45626391D01*
X2607619Y45626391D02*
X2512381Y45674010D01*
X2512381Y45674010D02*
X2464762Y45721629D01*
X2464762Y45721629D02*
X2417143Y45816867D01*
X2417143Y45816867D02*
X2417143Y45912105D01*
X2417143Y45912105D02*
X2464762Y46007343D01*
X2464762Y46007343D02*
X2512381Y46054962D01*
X2512381Y46054962D02*
X2607619Y46102581D01*
X2607619Y46102581D02*
X2845714Y46102581D01*
X2845714Y46102581D02*
X2988571Y46054962D01*
X3417143Y45102581D02*
X3417143Y46102581D01*
X3417143Y46102581D02*
X3655238Y46102581D01*
X3655238Y46102581D02*
X3798095Y46054962D01*
X3798095Y46054962D02*
X3893333Y45959724D01*
X3893333Y45959724D02*
X3940952Y45864486D01*
X3940952Y45864486D02*
X3988571Y45674010D01*
X3988571Y45674010D02*
X3988571Y45531153D01*
X3988571Y45531153D02*
X3940952Y45340677D01*
X3940952Y45340677D02*
X3893333Y45245439D01*
X3893333Y45245439D02*
X3798095Y45150200D01*
X3798095Y45150200D02*
X3655238Y45102581D01*
X3655238Y45102581D02*
X3417143Y45102581D01*
X4417143Y45483534D02*
X5179048Y45483534D01*
X6226666Y45197820D02*
X6179047Y45150200D01*
X6179047Y45150200D02*
X6036190Y45102581D01*
X6036190Y45102581D02*
X5940952Y45102581D01*
X5940952Y45102581D02*
X5798095Y45150200D01*
X5798095Y45150200D02*
X5702857Y45245439D01*
X5702857Y45245439D02*
X5655238Y45340677D01*
X5655238Y45340677D02*
X5607619Y45531153D01*
X5607619Y45531153D02*
X5607619Y45674010D01*
X5607619Y45674010D02*
X5655238Y45864486D01*
X5655238Y45864486D02*
X5702857Y45959724D01*
X5702857Y45959724D02*
X5798095Y46054962D01*
X5798095Y46054962D02*
X5940952Y46102581D01*
X5940952Y46102581D02*
X6036190Y46102581D01*
X6036190Y46102581D02*
X6179047Y46054962D01*
X6179047Y46054962D02*
X6226666Y46007343D01*
X6607619Y45388296D02*
X7083809Y45388296D01*
X6512381Y45102581D02*
X6845714Y46102581D01*
X6845714Y46102581D02*
X7179047Y45102581D01*
X8083809Y45102581D02*
X7750476Y45578772D01*
X7512381Y45102581D02*
X7512381Y46102581D01*
X7512381Y46102581D02*
X7893333Y46102581D01*
X7893333Y46102581D02*
X7988571Y46054962D01*
X7988571Y46054962D02*
X8036190Y46007343D01*
X8036190Y46007343D02*
X8083809Y45912105D01*
X8083809Y45912105D02*
X8083809Y45769248D01*
X8083809Y45769248D02*
X8036190Y45674010D01*
X8036190Y45674010D02*
X7988571Y45626391D01*
X7988571Y45626391D02*
X7893333Y45578772D01*
X7893333Y45578772D02*
X7512381Y45578772D01*
X8512381Y45102581D02*
X8512381Y46102581D01*
X8512381Y46102581D02*
X8750476Y46102581D01*
X8750476Y46102581D02*
X8893333Y46054962D01*
X8893333Y46054962D02*
X8988571Y45959724D01*
X8988571Y45959724D02*
X9036190Y45864486D01*
X9036190Y45864486D02*
X9083809Y45674010D01*
X9083809Y45674010D02*
X9083809Y45531153D01*
X9083809Y45531153D02*
X9036190Y45340677D01*
X9036190Y45340677D02*
X8988571Y45245439D01*
X8988571Y45245439D02*
X8893333Y45150200D01*
X8893333Y45150200D02*
X8750476Y45102581D01*
X8750476Y45102581D02*
X8512381Y45102581D01*
X9512381Y45483534D02*
X10274286Y45483534D01*
X10750476Y45102581D02*
X10750476Y45769248D01*
X10750476Y45674010D02*
X10798095Y45721629D01*
X10798095Y45721629D02*
X10893333Y45769248D01*
X10893333Y45769248D02*
X11036190Y45769248D01*
X11036190Y45769248D02*
X11131428Y45721629D01*
X11131428Y45721629D02*
X11179047Y45626391D01*
X11179047Y45626391D02*
X11179047Y45102581D01*
X11179047Y45626391D02*
X11226666Y45721629D01*
X11226666Y45721629D02*
X11321904Y45769248D01*
X11321904Y45769248D02*
X11464761Y45769248D01*
X11464761Y45769248D02*
X11560000Y45721629D01*
X11560000Y45721629D02*
X11607619Y45626391D01*
X11607619Y45626391D02*
X11607619Y45102581D01*
X12226666Y45102581D02*
X12131428Y45150200D01*
X12131428Y45150200D02*
X12083809Y45197820D01*
X12083809Y45197820D02*
X12036190Y45293058D01*
X12036190Y45293058D02*
X12036190Y45578772D01*
X12036190Y45578772D02*
X12083809Y45674010D01*
X12083809Y45674010D02*
X12131428Y45721629D01*
X12131428Y45721629D02*
X12226666Y45769248D01*
X12226666Y45769248D02*
X12369523Y45769248D01*
X12369523Y45769248D02*
X12464761Y45721629D01*
X12464761Y45721629D02*
X12512380Y45674010D01*
X12512380Y45674010D02*
X12559999Y45578772D01*
X12559999Y45578772D02*
X12559999Y45293058D01*
X12559999Y45293058D02*
X12512380Y45197820D01*
X12512380Y45197820D02*
X12464761Y45150200D01*
X12464761Y45150200D02*
X12369523Y45102581D01*
X12369523Y45102581D02*
X12226666Y45102581D01*
X13417142Y45102581D02*
X13417142Y46102581D01*
X13417142Y45150200D02*
X13321904Y45102581D01*
X13321904Y45102581D02*
X13131428Y45102581D01*
X13131428Y45102581D02*
X13036190Y45150200D01*
X13036190Y45150200D02*
X12988571Y45197820D01*
X12988571Y45197820D02*
X12940952Y45293058D01*
X12940952Y45293058D02*
X12940952Y45578772D01*
X12940952Y45578772D02*
X12988571Y45674010D01*
X12988571Y45674010D02*
X13036190Y45721629D01*
X13036190Y45721629D02*
X13131428Y45769248D01*
X13131428Y45769248D02*
X13321904Y45769248D01*
X13321904Y45769248D02*
X13417142Y45721629D01*
X14321904Y45769248D02*
X14321904Y45102581D01*
X13893333Y45769248D02*
X13893333Y45245439D01*
X13893333Y45245439D02*
X13940952Y45150200D01*
X13940952Y45150200D02*
X14036190Y45102581D01*
X14036190Y45102581D02*
X14179047Y45102581D01*
X14179047Y45102581D02*
X14274285Y45150200D01*
X14274285Y45150200D02*
X14321904Y45197820D01*
X14940952Y45102581D02*
X14845714Y45150200D01*
X14845714Y45150200D02*
X14798095Y45245439D01*
X14798095Y45245439D02*
X14798095Y46102581D01*
X15702857Y45150200D02*
X15607619Y45102581D01*
X15607619Y45102581D02*
X15417143Y45102581D01*
X15417143Y45102581D02*
X15321905Y45150200D01*
X15321905Y45150200D02*
X15274286Y45245439D01*
X15274286Y45245439D02*
X15274286Y45626391D01*
X15274286Y45626391D02*
X15321905Y45721629D01*
X15321905Y45721629D02*
X15417143Y45769248D01*
X15417143Y45769248D02*
X15607619Y45769248D01*
X15607619Y45769248D02*
X15702857Y45721629D01*
X15702857Y45721629D02*
X15750476Y45626391D01*
X15750476Y45626391D02*
X15750476Y45531153D01*
X15750476Y45531153D02*
X15274286Y45435915D01*
X16702857Y45102581D02*
X16131429Y45102581D01*
X16417143Y45102581D02*
X16417143Y46102581D01*
X16417143Y46102581D02*
X16321905Y45959724D01*
X16321905Y45959724D02*
X16226667Y45864486D01*
X16226667Y45864486D02*
X16131429Y45816867D01*
D10*
X79863333Y44870420D02*
X79815714Y44822800D01*
X79815714Y44822800D02*
X79672857Y44775181D01*
X79672857Y44775181D02*
X79577619Y44775181D01*
X79577619Y44775181D02*
X79434762Y44822800D01*
X79434762Y44822800D02*
X79339524Y44918039D01*
X79339524Y44918039D02*
X79291905Y45013277D01*
X79291905Y45013277D02*
X79244286Y45203753D01*
X79244286Y45203753D02*
X79244286Y45346610D01*
X79244286Y45346610D02*
X79291905Y45537086D01*
X79291905Y45537086D02*
X79339524Y45632324D01*
X79339524Y45632324D02*
X79434762Y45727562D01*
X79434762Y45727562D02*
X79577619Y45775181D01*
X79577619Y45775181D02*
X79672857Y45775181D01*
X79672857Y45775181D02*
X79815714Y45727562D01*
X79815714Y45727562D02*
X79863333Y45679943D01*
X80196667Y45775181D02*
X80863333Y45775181D01*
X80863333Y45775181D02*
X80434762Y44775181D01*
X71369580Y52553334D02*
X71417200Y52505715D01*
X71417200Y52505715D02*
X71464819Y52362858D01*
X71464819Y52362858D02*
X71464819Y52267620D01*
X71464819Y52267620D02*
X71417200Y52124763D01*
X71417200Y52124763D02*
X71321961Y52029525D01*
X71321961Y52029525D02*
X71226723Y51981906D01*
X71226723Y51981906D02*
X71036247Y51934287D01*
X71036247Y51934287D02*
X70893390Y51934287D01*
X70893390Y51934287D02*
X70702914Y51981906D01*
X70702914Y51981906D02*
X70607676Y52029525D01*
X70607676Y52029525D02*
X70512438Y52124763D01*
X70512438Y52124763D02*
X70464819Y52267620D01*
X70464819Y52267620D02*
X70464819Y52362858D01*
X70464819Y52362858D02*
X70512438Y52505715D01*
X70512438Y52505715D02*
X70560057Y52553334D01*
X70798152Y53410477D02*
X71464819Y53410477D01*
X70417200Y53172382D02*
X71131485Y52934287D01*
X71131485Y52934287D02*
X71131485Y53553334D01*
X81393333Y51895181D02*
X81060000Y52371372D01*
X80821905Y51895181D02*
X80821905Y52895181D01*
X80821905Y52895181D02*
X81202857Y52895181D01*
X81202857Y52895181D02*
X81298095Y52847562D01*
X81298095Y52847562D02*
X81345714Y52799943D01*
X81345714Y52799943D02*
X81393333Y52704705D01*
X81393333Y52704705D02*
X81393333Y52561848D01*
X81393333Y52561848D02*
X81345714Y52466610D01*
X81345714Y52466610D02*
X81298095Y52418991D01*
X81298095Y52418991D02*
X81202857Y52371372D01*
X81202857Y52371372D02*
X80821905Y52371372D01*
X82250476Y52561848D02*
X82250476Y51895181D01*
X82012381Y52942800D02*
X81774286Y52228515D01*
X81774286Y52228515D02*
X82393333Y52228515D01*
X71624580Y39183334D02*
X71672200Y39135715D01*
X71672200Y39135715D02*
X71719819Y38992858D01*
X71719819Y38992858D02*
X71719819Y38897620D01*
X71719819Y38897620D02*
X71672200Y38754763D01*
X71672200Y38754763D02*
X71576961Y38659525D01*
X71576961Y38659525D02*
X71481723Y38611906D01*
X71481723Y38611906D02*
X71291247Y38564287D01*
X71291247Y38564287D02*
X71148390Y38564287D01*
X71148390Y38564287D02*
X70957914Y38611906D01*
X70957914Y38611906D02*
X70862676Y38659525D01*
X70862676Y38659525D02*
X70767438Y38754763D01*
X70767438Y38754763D02*
X70719819Y38897620D01*
X70719819Y38897620D02*
X70719819Y38992858D01*
X70719819Y38992858D02*
X70767438Y39135715D01*
X70767438Y39135715D02*
X70815057Y39183334D01*
X70719819Y40040477D02*
X70719819Y39850001D01*
X70719819Y39850001D02*
X70767438Y39754763D01*
X70767438Y39754763D02*
X70815057Y39707144D01*
X70815057Y39707144D02*
X70957914Y39611906D01*
X70957914Y39611906D02*
X71148390Y39564287D01*
X71148390Y39564287D02*
X71529342Y39564287D01*
X71529342Y39564287D02*
X71624580Y39611906D01*
X71624580Y39611906D02*
X71672200Y39659525D01*
X71672200Y39659525D02*
X71719819Y39754763D01*
X71719819Y39754763D02*
X71719819Y39945239D01*
X71719819Y39945239D02*
X71672200Y40040477D01*
X71672200Y40040477D02*
X71624580Y40088096D01*
X71624580Y40088096D02*
X71529342Y40135715D01*
X71529342Y40135715D02*
X71291247Y40135715D01*
X71291247Y40135715D02*
X71196009Y40088096D01*
X71196009Y40088096D02*
X71148390Y40040477D01*
X71148390Y40040477D02*
X71100771Y39945239D01*
X71100771Y39945239D02*
X71100771Y39754763D01*
X71100771Y39754763D02*
X71148390Y39659525D01*
X71148390Y39659525D02*
X71196009Y39611906D01*
X71196009Y39611906D02*
X71291247Y39564287D01*
X48232142Y65825420D02*
X48184523Y65777800D01*
X48184523Y65777800D02*
X48041666Y65730181D01*
X48041666Y65730181D02*
X47946428Y65730181D01*
X47946428Y65730181D02*
X47803571Y65777800D01*
X47803571Y65777800D02*
X47708333Y65873039D01*
X47708333Y65873039D02*
X47660714Y65968277D01*
X47660714Y65968277D02*
X47613095Y66158753D01*
X47613095Y66158753D02*
X47613095Y66301610D01*
X47613095Y66301610D02*
X47660714Y66492086D01*
X47660714Y66492086D02*
X47708333Y66587324D01*
X47708333Y66587324D02*
X47803571Y66682562D01*
X47803571Y66682562D02*
X47946428Y66730181D01*
X47946428Y66730181D02*
X48041666Y66730181D01*
X48041666Y66730181D02*
X48184523Y66682562D01*
X48184523Y66682562D02*
X48232142Y66634943D01*
X49184523Y65730181D02*
X48613095Y65730181D01*
X48898809Y65730181D02*
X48898809Y66730181D01*
X48898809Y66730181D02*
X48803571Y66587324D01*
X48803571Y66587324D02*
X48708333Y66492086D01*
X48708333Y66492086D02*
X48613095Y66444467D01*
X49803571Y66730181D02*
X49898809Y66730181D01*
X49898809Y66730181D02*
X49994047Y66682562D01*
X49994047Y66682562D02*
X50041666Y66634943D01*
X50041666Y66634943D02*
X50089285Y66539705D01*
X50089285Y66539705D02*
X50136904Y66349229D01*
X50136904Y66349229D02*
X50136904Y66111134D01*
X50136904Y66111134D02*
X50089285Y65920658D01*
X50089285Y65920658D02*
X50041666Y65825420D01*
X50041666Y65825420D02*
X49994047Y65777800D01*
X49994047Y65777800D02*
X49898809Y65730181D01*
X49898809Y65730181D02*
X49803571Y65730181D01*
X49803571Y65730181D02*
X49708333Y65777800D01*
X49708333Y65777800D02*
X49660714Y65825420D01*
X49660714Y65825420D02*
X49613095Y65920658D01*
X49613095Y65920658D02*
X49565476Y66111134D01*
X49565476Y66111134D02*
X49565476Y66349229D01*
X49565476Y66349229D02*
X49613095Y66539705D01*
X49613095Y66539705D02*
X49660714Y66634943D01*
X49660714Y66634943D02*
X49708333Y66682562D01*
X49708333Y66682562D02*
X49803571Y66730181D01*
X48574819Y19803334D02*
X48098628Y19470001D01*
X48574819Y19231906D02*
X47574819Y19231906D01*
X47574819Y19231906D02*
X47574819Y19612858D01*
X47574819Y19612858D02*
X47622438Y19708096D01*
X47622438Y19708096D02*
X47670057Y19755715D01*
X47670057Y19755715D02*
X47765295Y19803334D01*
X47765295Y19803334D02*
X47908152Y19803334D01*
X47908152Y19803334D02*
X48003390Y19755715D01*
X48003390Y19755715D02*
X48051009Y19708096D01*
X48051009Y19708096D02*
X48098628Y19612858D01*
X48098628Y19612858D02*
X48098628Y19231906D01*
X47574819Y20136668D02*
X47574819Y20755715D01*
X47574819Y20755715D02*
X47955771Y20422382D01*
X47955771Y20422382D02*
X47955771Y20565239D01*
X47955771Y20565239D02*
X48003390Y20660477D01*
X48003390Y20660477D02*
X48051009Y20708096D01*
X48051009Y20708096D02*
X48146247Y20755715D01*
X48146247Y20755715D02*
X48384342Y20755715D01*
X48384342Y20755715D02*
X48479580Y20708096D01*
X48479580Y20708096D02*
X48527200Y20660477D01*
X48527200Y20660477D02*
X48574819Y20565239D01*
X48574819Y20565239D02*
X48574819Y20279525D01*
X48574819Y20279525D02*
X48527200Y20184287D01*
X48527200Y20184287D02*
X48479580Y20136668D01*
D13*
X12520476Y61532581D02*
X12520476Y60818296D01*
X12520476Y60818296D02*
X12472857Y60675439D01*
X12472857Y60675439D02*
X12377619Y60580200D01*
X12377619Y60580200D02*
X12234762Y60532581D01*
X12234762Y60532581D02*
X12139524Y60532581D01*
X13520476Y60532581D02*
X12949048Y60532581D01*
X13234762Y60532581D02*
X13234762Y61532581D01*
X13234762Y61532581D02*
X13139524Y61389724D01*
X13139524Y61389724D02*
X13044286Y61294486D01*
X13044286Y61294486D02*
X12949048Y61246867D01*
X14139524Y61532581D02*
X14234762Y61532581D01*
X14234762Y61532581D02*
X14330000Y61484962D01*
X14330000Y61484962D02*
X14377619Y61437343D01*
X14377619Y61437343D02*
X14425238Y61342105D01*
X14425238Y61342105D02*
X14472857Y61151629D01*
X14472857Y61151629D02*
X14472857Y60913534D01*
X14472857Y60913534D02*
X14425238Y60723058D01*
X14425238Y60723058D02*
X14377619Y60627820D01*
X14377619Y60627820D02*
X14330000Y60580200D01*
X14330000Y60580200D02*
X14234762Y60532581D01*
X14234762Y60532581D02*
X14139524Y60532581D01*
X14139524Y60532581D02*
X14044286Y60580200D01*
X14044286Y60580200D02*
X13996667Y60627820D01*
X13996667Y60627820D02*
X13949048Y60723058D01*
X13949048Y60723058D02*
X13901429Y60913534D01*
X13901429Y60913534D02*
X13901429Y61151629D01*
X13901429Y61151629D02*
X13949048Y61342105D01*
X13949048Y61342105D02*
X13996667Y61437343D01*
X13996667Y61437343D02*
X14044286Y61484962D01*
X14044286Y61484962D02*
X14139524Y61532581D01*
D10*
X1873809Y61505181D02*
X2207142Y60505181D01*
X2207142Y60505181D02*
X2540475Y61505181D01*
X3397618Y61457562D02*
X3302380Y61505181D01*
X3302380Y61505181D02*
X3159523Y61505181D01*
X3159523Y61505181D02*
X3016666Y61457562D01*
X3016666Y61457562D02*
X2921428Y61362324D01*
X2921428Y61362324D02*
X2873809Y61267086D01*
X2873809Y61267086D02*
X2826190Y61076610D01*
X2826190Y61076610D02*
X2826190Y60933753D01*
X2826190Y60933753D02*
X2873809Y60743277D01*
X2873809Y60743277D02*
X2921428Y60648039D01*
X2921428Y60648039D02*
X3016666Y60552800D01*
X3016666Y60552800D02*
X3159523Y60505181D01*
X3159523Y60505181D02*
X3254761Y60505181D01*
X3254761Y60505181D02*
X3397618Y60552800D01*
X3397618Y60552800D02*
X3445237Y60600420D01*
X3445237Y60600420D02*
X3445237Y60933753D01*
X3445237Y60933753D02*
X3254761Y60933753D01*
X3826190Y60790896D02*
X4302380Y60790896D01*
X3730952Y60505181D02*
X4064285Y61505181D01*
X4064285Y61505181D02*
X4397618Y60505181D01*
X4492857Y60409943D02*
X5254761Y60409943D01*
X5445238Y60552800D02*
X5588095Y60505181D01*
X5588095Y60505181D02*
X5826190Y60505181D01*
X5826190Y60505181D02*
X5921428Y60552800D01*
X5921428Y60552800D02*
X5969047Y60600420D01*
X5969047Y60600420D02*
X6016666Y60695658D01*
X6016666Y60695658D02*
X6016666Y60790896D01*
X6016666Y60790896D02*
X5969047Y60886134D01*
X5969047Y60886134D02*
X5921428Y60933753D01*
X5921428Y60933753D02*
X5826190Y60981372D01*
X5826190Y60981372D02*
X5635714Y61028991D01*
X5635714Y61028991D02*
X5540476Y61076610D01*
X5540476Y61076610D02*
X5492857Y61124229D01*
X5492857Y61124229D02*
X5445238Y61219467D01*
X5445238Y61219467D02*
X5445238Y61314705D01*
X5445238Y61314705D02*
X5492857Y61409943D01*
X5492857Y61409943D02*
X5540476Y61457562D01*
X5540476Y61457562D02*
X5635714Y61505181D01*
X5635714Y61505181D02*
X5873809Y61505181D01*
X5873809Y61505181D02*
X6016666Y61457562D01*
X6635714Y61505181D02*
X6826190Y61505181D01*
X6826190Y61505181D02*
X6921428Y61457562D01*
X6921428Y61457562D02*
X7016666Y61362324D01*
X7016666Y61362324D02*
X7064285Y61171848D01*
X7064285Y61171848D02*
X7064285Y60838515D01*
X7064285Y60838515D02*
X7016666Y60648039D01*
X7016666Y60648039D02*
X6921428Y60552800D01*
X6921428Y60552800D02*
X6826190Y60505181D01*
X6826190Y60505181D02*
X6635714Y60505181D01*
X6635714Y60505181D02*
X6540476Y60552800D01*
X6540476Y60552800D02*
X6445238Y60648039D01*
X6445238Y60648039D02*
X6397619Y60838515D01*
X6397619Y60838515D02*
X6397619Y61171848D01*
X6397619Y61171848D02*
X6445238Y61362324D01*
X6445238Y61362324D02*
X6540476Y61457562D01*
X6540476Y61457562D02*
X6635714Y61505181D01*
X8064285Y60600420D02*
X8016666Y60552800D01*
X8016666Y60552800D02*
X7873809Y60505181D01*
X7873809Y60505181D02*
X7778571Y60505181D01*
X7778571Y60505181D02*
X7635714Y60552800D01*
X7635714Y60552800D02*
X7540476Y60648039D01*
X7540476Y60648039D02*
X7492857Y60743277D01*
X7492857Y60743277D02*
X7445238Y60933753D01*
X7445238Y60933753D02*
X7445238Y61076610D01*
X7445238Y61076610D02*
X7492857Y61267086D01*
X7492857Y61267086D02*
X7540476Y61362324D01*
X7540476Y61362324D02*
X7635714Y61457562D01*
X7635714Y61457562D02*
X7778571Y61505181D01*
X7778571Y61505181D02*
X7873809Y61505181D01*
X7873809Y61505181D02*
X8016666Y61457562D01*
X8016666Y61457562D02*
X8064285Y61409943D01*
X8492857Y60505181D02*
X8492857Y61505181D01*
X9064285Y60505181D02*
X8635714Y61076610D01*
X9064285Y61505181D02*
X8492857Y60933753D01*
X9492857Y61028991D02*
X9826190Y61028991D01*
X9969047Y60505181D02*
X9492857Y60505181D01*
X9492857Y60505181D02*
X9492857Y61505181D01*
X9492857Y61505181D02*
X9969047Y61505181D01*
X10254762Y61505181D02*
X10826190Y61505181D01*
X10540476Y60505181D02*
X10540476Y61505181D01*
X50343333Y28780420D02*
X50295714Y28732800D01*
X50295714Y28732800D02*
X50152857Y28685181D01*
X50152857Y28685181D02*
X50057619Y28685181D01*
X50057619Y28685181D02*
X49914762Y28732800D01*
X49914762Y28732800D02*
X49819524Y28828039D01*
X49819524Y28828039D02*
X49771905Y28923277D01*
X49771905Y28923277D02*
X49724286Y29113753D01*
X49724286Y29113753D02*
X49724286Y29256610D01*
X49724286Y29256610D02*
X49771905Y29447086D01*
X49771905Y29447086D02*
X49819524Y29542324D01*
X49819524Y29542324D02*
X49914762Y29637562D01*
X49914762Y29637562D02*
X50057619Y29685181D01*
X50057619Y29685181D02*
X50152857Y29685181D01*
X50152857Y29685181D02*
X50295714Y29637562D01*
X50295714Y29637562D02*
X50343333Y29589943D01*
X51295714Y28685181D02*
X50724286Y28685181D01*
X51010000Y28685181D02*
X51010000Y29685181D01*
X51010000Y29685181D02*
X50914762Y29542324D01*
X50914762Y29542324D02*
X50819524Y29447086D01*
X50819524Y29447086D02*
X50724286Y29399467D01*
X11386666Y56985181D02*
X11386666Y56270896D01*
X11386666Y56270896D02*
X11339047Y56128039D01*
X11339047Y56128039D02*
X11243809Y56032800D01*
X11243809Y56032800D02*
X11100952Y55985181D01*
X11100952Y55985181D02*
X11005714Y55985181D01*
X11862857Y55985181D02*
X11862857Y56985181D01*
X11862857Y56985181D02*
X12243809Y56985181D01*
X12243809Y56985181D02*
X12339047Y56937562D01*
X12339047Y56937562D02*
X12386666Y56889943D01*
X12386666Y56889943D02*
X12434285Y56794705D01*
X12434285Y56794705D02*
X12434285Y56651848D01*
X12434285Y56651848D02*
X12386666Y56556610D01*
X12386666Y56556610D02*
X12339047Y56508991D01*
X12339047Y56508991D02*
X12243809Y56461372D01*
X12243809Y56461372D02*
X11862857Y56461372D01*
X13386666Y55985181D02*
X12815238Y55985181D01*
X13100952Y55985181D02*
X13100952Y56985181D01*
X13100952Y56985181D02*
X13005714Y56842324D01*
X13005714Y56842324D02*
X12910476Y56747086D01*
X12910476Y56747086D02*
X12815238Y56699467D01*
X16363333Y13390420D02*
X16315714Y13342800D01*
X16315714Y13342800D02*
X16172857Y13295181D01*
X16172857Y13295181D02*
X16077619Y13295181D01*
X16077619Y13295181D02*
X15934762Y13342800D01*
X15934762Y13342800D02*
X15839524Y13438039D01*
X15839524Y13438039D02*
X15791905Y13533277D01*
X15791905Y13533277D02*
X15744286Y13723753D01*
X15744286Y13723753D02*
X15744286Y13866610D01*
X15744286Y13866610D02*
X15791905Y14057086D01*
X15791905Y14057086D02*
X15839524Y14152324D01*
X15839524Y14152324D02*
X15934762Y14247562D01*
X15934762Y14247562D02*
X16077619Y14295181D01*
X16077619Y14295181D02*
X16172857Y14295181D01*
X16172857Y14295181D02*
X16315714Y14247562D01*
X16315714Y14247562D02*
X16363333Y14199943D01*
X16696667Y14295181D02*
X17315714Y14295181D01*
X17315714Y14295181D02*
X16982381Y13914229D01*
X16982381Y13914229D02*
X17125238Y13914229D01*
X17125238Y13914229D02*
X17220476Y13866610D01*
X17220476Y13866610D02*
X17268095Y13818991D01*
X17268095Y13818991D02*
X17315714Y13723753D01*
X17315714Y13723753D02*
X17315714Y13485658D01*
X17315714Y13485658D02*
X17268095Y13390420D01*
X17268095Y13390420D02*
X17220476Y13342800D01*
X17220476Y13342800D02*
X17125238Y13295181D01*
X17125238Y13295181D02*
X16839524Y13295181D01*
X16839524Y13295181D02*
X16744286Y13342800D01*
X16744286Y13342800D02*
X16696667Y13390420D01*
D15*
X67370000Y36770000D02*
X66040000Y36770000D01*
X67370000Y38100000D02*
X67370000Y36770000D01*
X67370000Y39370000D02*
X67370000Y57210000D01*
X67370000Y39370000D02*
X64770000Y39370000D01*
X67370000Y57210000D02*
X62170000Y57210000D01*
X64770000Y36770000D02*
X62170000Y36770000D01*
X64770000Y39370000D02*
X64770000Y36770000D01*
X62170000Y36770000D02*
X62170000Y57210000D01*
X22570000Y19016000D02*
X22570000Y18860000D01*
X22570000Y16700000D02*
X22570000Y16544000D01*
X25802334Y18858608D02*
G75*
G03*
X22570001Y19015515I-1672334J-1078608D01*
G01*
X25171129Y18859836D02*
G75*
G03*
X23089040Y18859999I-1041129J-1079836D01*
G01*
X23089040Y16700001D02*
G75*
G03*
X25171129Y16700164I1040960J1079999D01*
G01*
X22570001Y16544485D02*
G75*
G03*
X25802334Y16701392I1559999J1235515D01*
G01*
X41850000Y31690000D02*
X41850000Y33020000D01*
X43180000Y31690000D02*
X41850000Y31690000D01*
X44450000Y31690000D02*
X62290000Y31690000D01*
X44450000Y31690000D02*
X44450000Y34290000D01*
X62290000Y31690000D02*
X62290000Y36890000D01*
X41850000Y34290000D02*
X41850000Y36890000D01*
X44450000Y34290000D02*
X41850000Y34290000D01*
X41850000Y36890000D02*
X62290000Y36890000D01*
X33624000Y43801000D02*
X33624000Y45059000D01*
X35464000Y43801000D02*
X35464000Y45059000D01*
X55271000Y30130000D02*
X56529000Y30130000D01*
X55271000Y28290000D02*
X56529000Y28290000D01*
D13*
X82025400Y69405000D02*
X73880000Y69405000D01*
X73880000Y69405000D02*
X73880000Y57375000D01*
X73880000Y57375000D02*
X82025400Y57375000D01*
X82025400Y57375000D02*
X82025400Y69405000D01*
D15*
X20860000Y24230000D02*
X27400000Y24230000D01*
X20860000Y23900000D02*
X20860000Y24230000D01*
X20860000Y21820000D02*
X20860000Y21490000D01*
X20860000Y21490000D02*
X27400000Y21490000D01*
X27400000Y24230000D02*
X27400000Y23900000D01*
X27400000Y21490000D02*
X27400000Y21820000D01*
D13*
X1470000Y25620000D02*
X14970000Y25620000D01*
X14970000Y25620000D02*
X14970000Y16620000D01*
X14970000Y16620000D02*
X1470000Y16620000D01*
X1470000Y16620000D02*
X1470000Y25620000D01*
D15*
X76175000Y48825000D02*
X76175000Y42575000D01*
X71125000Y48825000D02*
X71125000Y42575000D01*
X76175000Y48825000D02*
G75*
G03*
X71125000Y48825000I-2525000J0D01*
G01*
X71125000Y42575000D02*
G75*
G03*
X76175000Y42575000I2525000J0D01*
G01*
X69435000Y22980000D02*
X71845000Y22980000D01*
X69435000Y22980000D02*
G75*
G03*
X69435000Y22980000I-1470000J0D01*
G01*
X53326000Y65055000D02*
X54584000Y65055000D01*
X53326000Y63215000D02*
X54584000Y63215000D01*
D16*
X46944200Y52105800D02*
X46944200Y51197440D01*
X46944200Y42752560D02*
X46944200Y41844200D01*
X46944200Y41844200D02*
X47852560Y41844200D01*
X47852560Y52105800D02*
X46944200Y52105800D01*
X56297440Y41844200D02*
X57205800Y41844200D01*
X57205800Y52105800D02*
X56297440Y52105800D01*
X57205800Y51197440D02*
X57205800Y52105800D01*
X57205800Y41844200D02*
X57205800Y42752560D01*
G36*
X45471000Y46034499D02*
G01*
X45217000Y46034499D01*
X45217000Y46415499D01*
X45471000Y46415499D01*
X45471000Y46034499D01*
G37*
G36*
X50015499Y40117000D02*
G01*
X49634499Y40117000D01*
X49634499Y40371000D01*
X50015499Y40371000D01*
X50015499Y40117000D01*
G37*
G36*
X50515501Y53579000D02*
G01*
X50134501Y53579000D01*
X50134501Y53833000D01*
X50515501Y53833000D01*
X50515501Y53579000D01*
G37*
G36*
X55015500Y40117000D02*
G01*
X54634500Y40117000D01*
X54634500Y40371000D01*
X55015500Y40371000D01*
X55015500Y40117000D01*
G37*
G36*
X55515501Y53579000D02*
G01*
X55134501Y53579000D01*
X55134501Y53833000D01*
X55515501Y53833000D01*
X55515501Y53579000D01*
G37*
G36*
X58933000Y46534500D02*
G01*
X58679000Y46534500D01*
X58679000Y46915501D01*
X58933000Y46915501D01*
X58933000Y46534500D01*
G37*
D15*
X10720000Y50520000D02*
X10720000Y51120000D01*
X11420000Y51820000D02*
X12820000Y51820000D01*
X12820000Y49820000D02*
X11420000Y49820000D01*
X13520000Y51120000D02*
X13520000Y50520000D01*
X11420000Y51820000D02*
G75*
G03*
X10720000Y51120000I-1J-699999D01*
G01*
X10720000Y50520000D02*
G75*
G03*
X11420000Y49820000I699999J-1D01*
G01*
X13520000Y51120000D02*
G75*
G03*
X12820000Y51820000I-700000J0D01*
G01*
X12820000Y49820000D02*
G75*
G03*
X13520000Y50520000I0J700000D01*
G01*
X52110000Y13990000D02*
X52110000Y12010000D01*
X52110000Y13990000D02*
X66830000Y13990000D01*
X52110000Y8310000D02*
X52110000Y760000D01*
X52110000Y760000D02*
X66830000Y760000D01*
X55470000Y14870000D02*
X55970000Y14370000D01*
X55970000Y14370000D02*
X56470000Y14870000D01*
X56470000Y14870000D02*
X55470000Y14870000D01*
X66830000Y12010000D02*
X66830000Y13990000D01*
X66830000Y8310000D02*
X66830000Y760000D01*
X9870000Y10000000D02*
X9870000Y11330000D01*
X9870000Y11330000D02*
X8540000Y11330000D01*
X7270000Y8670000D02*
X7270000Y11330000D01*
X7270000Y8670000D02*
X2130000Y8670000D01*
X7270000Y11330000D02*
X2130000Y11330000D01*
X2130000Y8670000D02*
X2130000Y11330000D01*
X81090000Y16590000D02*
X79760000Y16590000D01*
X81090000Y17920000D02*
X81090000Y16590000D01*
X81090000Y19190000D02*
X81090000Y31950000D01*
X81090000Y19190000D02*
X78430000Y19190000D01*
X81090000Y31950000D02*
X78430000Y31950000D01*
X78430000Y19190000D02*
X78430000Y31950000D01*
X62290000Y62290000D02*
X62290000Y60960000D01*
X60960000Y62290000D02*
X62290000Y62290000D01*
X59690000Y62290000D02*
X41850000Y62290000D01*
X59690000Y62290000D02*
X59690000Y59690000D01*
X41850000Y62290000D02*
X41850000Y57090000D01*
X62290000Y59690000D02*
X62290000Y57090000D01*
X59690000Y59690000D02*
X62290000Y59690000D01*
X62290000Y57090000D02*
X41850000Y57090000D01*
X36770000Y57210000D02*
X38100000Y57210000D01*
X36770000Y55880000D02*
X36770000Y57210000D01*
X36770000Y54610000D02*
X36770000Y36770000D01*
X36770000Y54610000D02*
X39370000Y54610000D01*
X36770000Y36770000D02*
X41970000Y36770000D01*
X39370000Y57210000D02*
X41970000Y57210000D01*
X39370000Y54610000D02*
X39370000Y57210000D01*
X41970000Y57210000D02*
X41970000Y36770000D01*
X21000000Y61370000D02*
X27540000Y61370000D01*
X21000000Y61040000D02*
X21000000Y61370000D01*
X21000000Y58960000D02*
X21000000Y58630000D01*
X21000000Y58630000D02*
X27540000Y58630000D01*
X27540000Y61370000D02*
X27540000Y61040000D01*
X27540000Y58630000D02*
X27540000Y58960000D01*
X79361000Y49180000D02*
X80619000Y49180000D01*
X79361000Y47340000D02*
X80619000Y47340000D01*
X44510000Y12330000D02*
X44510000Y11000000D01*
X43180000Y12330000D02*
X44510000Y12330000D01*
X41910000Y12330000D02*
X29150000Y12330000D01*
X41910000Y12330000D02*
X41910000Y9670000D01*
X29150000Y12330000D02*
X29150000Y9670000D01*
X41910000Y9670000D02*
X29150000Y9670000D01*
D13*
X1060000Y27060000D02*
X30560000Y27060000D01*
X30560000Y27060000D02*
X30560000Y57560000D01*
X30560000Y57560000D02*
X1060000Y57560000D01*
X1060000Y57560000D02*
X1060000Y27060000D01*
D15*
X79401000Y44100000D02*
X80659000Y44100000D01*
X79401000Y42260000D02*
X80659000Y42260000D01*
X72589000Y54030000D02*
X71331000Y54030000D01*
X72589000Y55870000D02*
X71331000Y55870000D01*
X77820000Y56190000D02*
X84360000Y56190000D01*
X77820000Y55860000D02*
X77820000Y56190000D01*
X77820000Y53780000D02*
X77820000Y53450000D01*
X77820000Y53450000D02*
X84360000Y53450000D01*
X84360000Y56190000D02*
X84360000Y55860000D01*
X84360000Y53450000D02*
X84360000Y53780000D01*
X70135000Y39979000D02*
X70135000Y38721000D01*
X68295000Y39979000D02*
X68295000Y38721000D01*
X48246000Y65055000D02*
X49504000Y65055000D01*
X48246000Y63215000D02*
X49504000Y63215000D01*
X47120000Y23240000D02*
X47120000Y16700000D01*
X46790000Y23240000D02*
X47120000Y23240000D01*
X44710000Y23240000D02*
X44380000Y23240000D01*
X44380000Y23240000D02*
X44380000Y16700000D01*
X47120000Y16700000D02*
X46790000Y16700000D01*
X44380000Y16700000D02*
X44710000Y16700000D01*
D13*
X6974600Y62000000D02*
X7000000Y62000000D01*
X7000000Y62000000D02*
X7000000Y61974600D01*
X7000000Y61974600D02*
X6974600Y61974600D01*
X6974600Y61974600D02*
X6974600Y62000000D01*
X7470000Y61990000D02*
X37470000Y61990000D01*
X37470000Y61990000D02*
X37470000Y67990000D01*
X37470000Y67990000D02*
X7470000Y67990000D01*
X7470000Y67990000D02*
X7470000Y61990000D01*
D15*
X46381000Y30130000D02*
X47639000Y30130000D01*
X46381000Y28290000D02*
X47639000Y28290000D01*
X10820000Y54340000D02*
X10820000Y54940000D01*
X11520000Y55640000D02*
X12920000Y55640000D01*
X12920000Y53640000D02*
X11520000Y53640000D01*
X13620000Y54940000D02*
X13620000Y54340000D01*
X11520000Y55640000D02*
G75*
G03*
X10820000Y54940000I-1J-699999D01*
G01*
X10820000Y54340000D02*
G75*
G03*
X11520000Y53640000I699999J-1D01*
G01*
X13620000Y54940000D02*
G75*
G03*
X12920000Y55640000I-700000J0D01*
G01*
X12920000Y53640000D02*
G75*
G03*
X13620000Y54340000I0J700000D01*
G01*
X13725225Y11475000D02*
X14225225Y11475000D01*
X13975225Y11725000D02*
X13975225Y11225000D01*
X19150000Y10000000D02*
G75*
G03*
X19150000Y10000000I-2620000J0D01*
G01*
M02*
