%TF.GenerationSoftware,KiCad,Pcbnew,7.0.5*%
%TF.CreationDate,2023-07-08T16:14:15+09:00*%
%TF.ProjectId,mz80emu-vga,6d7a3830-656d-4752-9d76-67612e6b6963,2.0*%
%TF.SameCoordinates,PX5f5e100PY8f872a0*%
%TF.FileFunction,Legend,Bot*%
%TF.FilePolarity,Positive*%
%FSLAX46Y46*%
G04 Gerber Fmt 4.6, Leading zero omitted, Abs format (unit mm)*
G04 Created by KiCad (PCBNEW 7.0.5) date 2023-07-08 16:14:15*
%MOMM*%
%LPD*%
G01*
G04 APERTURE LIST*
%ADD10C,0.150000*%
G04 APERTURE END LIST*
D10*
X26348458Y53100181D02*
X26110363Y52100181D01*
X26110363Y52100181D02*
X25919887Y52814467D01*
X25919887Y52814467D02*
X25729411Y52100181D01*
X25729411Y52100181D02*
X25491316Y53100181D01*
X24538935Y52100181D02*
X24872268Y52576372D01*
X25110363Y52100181D02*
X25110363Y53100181D01*
X25110363Y53100181D02*
X24729411Y53100181D01*
X24729411Y53100181D02*
X24634173Y53052562D01*
X24634173Y53052562D02*
X24586554Y53004943D01*
X24586554Y53004943D02*
X24538935Y52909705D01*
X24538935Y52909705D02*
X24538935Y52766848D01*
X24538935Y52766848D02*
X24586554Y52671610D01*
X24586554Y52671610D02*
X24634173Y52623991D01*
X24634173Y52623991D02*
X24729411Y52576372D01*
X24729411Y52576372D02*
X25110363Y52576372D01*
X24253220Y53100181D02*
X23681792Y53100181D01*
X23967506Y52100181D02*
X23967506Y53100181D01*
X23586554Y52004943D02*
X22824649Y52004943D01*
X22586553Y52100181D02*
X22586553Y53100181D01*
X22586553Y53100181D02*
X22205601Y53100181D01*
X22205601Y53100181D02*
X22110363Y53052562D01*
X22110363Y53052562D02*
X22062744Y53004943D01*
X22062744Y53004943D02*
X22015125Y52909705D01*
X22015125Y52909705D02*
X22015125Y52766848D01*
X22015125Y52766848D02*
X22062744Y52671610D01*
X22062744Y52671610D02*
X22110363Y52623991D01*
X22110363Y52623991D02*
X22205601Y52576372D01*
X22205601Y52576372D02*
X22586553Y52576372D01*
X25591792Y41725420D02*
X25639411Y41677800D01*
X25639411Y41677800D02*
X25782268Y41630181D01*
X25782268Y41630181D02*
X25877506Y41630181D01*
X25877506Y41630181D02*
X26020363Y41677800D01*
X26020363Y41677800D02*
X26115601Y41773039D01*
X26115601Y41773039D02*
X26163220Y41868277D01*
X26163220Y41868277D02*
X26210839Y42058753D01*
X26210839Y42058753D02*
X26210839Y42201610D01*
X26210839Y42201610D02*
X26163220Y42392086D01*
X26163220Y42392086D02*
X26115601Y42487324D01*
X26115601Y42487324D02*
X26020363Y42582562D01*
X26020363Y42582562D02*
X25877506Y42630181D01*
X25877506Y42630181D02*
X25782268Y42630181D01*
X25782268Y42630181D02*
X25639411Y42582562D01*
X25639411Y42582562D02*
X25591792Y42534943D01*
X24687030Y41630181D02*
X25163220Y41630181D01*
X25163220Y41630181D02*
X25163220Y42630181D01*
X24353696Y41630181D02*
X24353696Y42630181D01*
X23782268Y41630181D02*
X24210839Y42201610D01*
X23782268Y42630181D02*
X24353696Y42058753D01*
X25791792Y54595420D02*
X25839411Y54547800D01*
X25839411Y54547800D02*
X25982268Y54500181D01*
X25982268Y54500181D02*
X26077506Y54500181D01*
X26077506Y54500181D02*
X26220363Y54547800D01*
X26220363Y54547800D02*
X26315601Y54643039D01*
X26315601Y54643039D02*
X26363220Y54738277D01*
X26363220Y54738277D02*
X26410839Y54928753D01*
X26410839Y54928753D02*
X26410839Y55071610D01*
X26410839Y55071610D02*
X26363220Y55262086D01*
X26363220Y55262086D02*
X26315601Y55357324D01*
X26315601Y55357324D02*
X26220363Y55452562D01*
X26220363Y55452562D02*
X26077506Y55500181D01*
X26077506Y55500181D02*
X25982268Y55500181D01*
X25982268Y55500181D02*
X25839411Y55452562D01*
X25839411Y55452562D02*
X25791792Y55404943D01*
X25172744Y55500181D02*
X24982268Y55500181D01*
X24982268Y55500181D02*
X24887030Y55452562D01*
X24887030Y55452562D02*
X24791792Y55357324D01*
X24791792Y55357324D02*
X24744173Y55166848D01*
X24744173Y55166848D02*
X24744173Y54833515D01*
X24744173Y54833515D02*
X24791792Y54643039D01*
X24791792Y54643039D02*
X24887030Y54547800D01*
X24887030Y54547800D02*
X24982268Y54500181D01*
X24982268Y54500181D02*
X25172744Y54500181D01*
X25172744Y54500181D02*
X25267982Y54547800D01*
X25267982Y54547800D02*
X25363220Y54643039D01*
X25363220Y54643039D02*
X25410839Y54833515D01*
X25410839Y54833515D02*
X25410839Y55166848D01*
X25410839Y55166848D02*
X25363220Y55357324D01*
X25363220Y55357324D02*
X25267982Y55452562D01*
X25267982Y55452562D02*
X25172744Y55500181D01*
X24315601Y54500181D02*
X24315601Y55500181D01*
X24315601Y55500181D02*
X23982268Y54785896D01*
X23982268Y54785896D02*
X23648935Y55500181D01*
X23648935Y55500181D02*
X23648935Y54500181D01*
X26163220Y34130181D02*
X26163220Y35130181D01*
X26163220Y35130181D02*
X25925125Y35130181D01*
X25925125Y35130181D02*
X25782268Y35082562D01*
X25782268Y35082562D02*
X25687030Y34987324D01*
X25687030Y34987324D02*
X25639411Y34892086D01*
X25639411Y34892086D02*
X25591792Y34701610D01*
X25591792Y34701610D02*
X25591792Y34558753D01*
X25591792Y34558753D02*
X25639411Y34368277D01*
X25639411Y34368277D02*
X25687030Y34273039D01*
X25687030Y34273039D02*
X25782268Y34177800D01*
X25782268Y34177800D02*
X25925125Y34130181D01*
X25925125Y34130181D02*
X26163220Y34130181D01*
X25210839Y35034943D02*
X25163220Y35082562D01*
X25163220Y35082562D02*
X25067982Y35130181D01*
X25067982Y35130181D02*
X24829887Y35130181D01*
X24829887Y35130181D02*
X24734649Y35082562D01*
X24734649Y35082562D02*
X24687030Y35034943D01*
X24687030Y35034943D02*
X24639411Y34939705D01*
X24639411Y34939705D02*
X24639411Y34844467D01*
X24639411Y34844467D02*
X24687030Y34701610D01*
X24687030Y34701610D02*
X25258458Y34130181D01*
X25258458Y34130181D02*
X24639411Y34130181D01*
X26163220Y44630181D02*
X26163220Y45630181D01*
X26163220Y45630181D02*
X25925125Y45630181D01*
X25925125Y45630181D02*
X25782268Y45582562D01*
X25782268Y45582562D02*
X25687030Y45487324D01*
X25687030Y45487324D02*
X25639411Y45392086D01*
X25639411Y45392086D02*
X25591792Y45201610D01*
X25591792Y45201610D02*
X25591792Y45058753D01*
X25591792Y45058753D02*
X25639411Y44868277D01*
X25639411Y44868277D02*
X25687030Y44773039D01*
X25687030Y44773039D02*
X25782268Y44677800D01*
X25782268Y44677800D02*
X25925125Y44630181D01*
X25925125Y44630181D02*
X26163220Y44630181D01*
X24972744Y45630181D02*
X24877506Y45630181D01*
X24877506Y45630181D02*
X24782268Y45582562D01*
X24782268Y45582562D02*
X24734649Y45534943D01*
X24734649Y45534943D02*
X24687030Y45439705D01*
X24687030Y45439705D02*
X24639411Y45249229D01*
X24639411Y45249229D02*
X24639411Y45011134D01*
X24639411Y45011134D02*
X24687030Y44820658D01*
X24687030Y44820658D02*
X24734649Y44725420D01*
X24734649Y44725420D02*
X24782268Y44677800D01*
X24782268Y44677800D02*
X24877506Y44630181D01*
X24877506Y44630181D02*
X24972744Y44630181D01*
X24972744Y44630181D02*
X25067982Y44677800D01*
X25067982Y44677800D02*
X25115601Y44725420D01*
X25115601Y44725420D02*
X25163220Y44820658D01*
X25163220Y44820658D02*
X25210839Y45011134D01*
X25210839Y45011134D02*
X25210839Y45249229D01*
X25210839Y45249229D02*
X25163220Y45439705D01*
X25163220Y45439705D02*
X25115601Y45534943D01*
X25115601Y45534943D02*
X25067982Y45582562D01*
X25067982Y45582562D02*
X24972744Y45630181D01*
X26163220Y36630181D02*
X26163220Y37630181D01*
X26163220Y37630181D02*
X25925125Y37630181D01*
X25925125Y37630181D02*
X25782268Y37582562D01*
X25782268Y37582562D02*
X25687030Y37487324D01*
X25687030Y37487324D02*
X25639411Y37392086D01*
X25639411Y37392086D02*
X25591792Y37201610D01*
X25591792Y37201610D02*
X25591792Y37058753D01*
X25591792Y37058753D02*
X25639411Y36868277D01*
X25639411Y36868277D02*
X25687030Y36773039D01*
X25687030Y36773039D02*
X25782268Y36677800D01*
X25782268Y36677800D02*
X25925125Y36630181D01*
X25925125Y36630181D02*
X26163220Y36630181D01*
X25258458Y37630181D02*
X24639411Y37630181D01*
X24639411Y37630181D02*
X24972744Y37249229D01*
X24972744Y37249229D02*
X24829887Y37249229D01*
X24829887Y37249229D02*
X24734649Y37201610D01*
X24734649Y37201610D02*
X24687030Y37153991D01*
X24687030Y37153991D02*
X24639411Y37058753D01*
X24639411Y37058753D02*
X24639411Y36820658D01*
X24639411Y36820658D02*
X24687030Y36725420D01*
X24687030Y36725420D02*
X24734649Y36677800D01*
X24734649Y36677800D02*
X24829887Y36630181D01*
X24829887Y36630181D02*
X25115601Y36630181D01*
X25115601Y36630181D02*
X25210839Y36677800D01*
X25210839Y36677800D02*
X25258458Y36725420D01*
X26153220Y47010181D02*
X26153220Y48010181D01*
X26153220Y48010181D02*
X25915125Y48010181D01*
X25915125Y48010181D02*
X25772268Y47962562D01*
X25772268Y47962562D02*
X25677030Y47867324D01*
X25677030Y47867324D02*
X25629411Y47772086D01*
X25629411Y47772086D02*
X25581792Y47581610D01*
X25581792Y47581610D02*
X25581792Y47438753D01*
X25581792Y47438753D02*
X25629411Y47248277D01*
X25629411Y47248277D02*
X25677030Y47153039D01*
X25677030Y47153039D02*
X25772268Y47057800D01*
X25772268Y47057800D02*
X25915125Y47010181D01*
X25915125Y47010181D02*
X26153220Y47010181D01*
X24629411Y47010181D02*
X25200839Y47010181D01*
X24915125Y47010181D02*
X24915125Y48010181D01*
X24915125Y48010181D02*
X25010363Y47867324D01*
X25010363Y47867324D02*
X25105601Y47772086D01*
X25105601Y47772086D02*
X25200839Y47724467D01*
X25621792Y49655420D02*
X25669411Y49607800D01*
X25669411Y49607800D02*
X25812268Y49560181D01*
X25812268Y49560181D02*
X25907506Y49560181D01*
X25907506Y49560181D02*
X26050363Y49607800D01*
X26050363Y49607800D02*
X26145601Y49703039D01*
X26145601Y49703039D02*
X26193220Y49798277D01*
X26193220Y49798277D02*
X26240839Y49988753D01*
X26240839Y49988753D02*
X26240839Y50131610D01*
X26240839Y50131610D02*
X26193220Y50322086D01*
X26193220Y50322086D02*
X26145601Y50417324D01*
X26145601Y50417324D02*
X26050363Y50512562D01*
X26050363Y50512562D02*
X25907506Y50560181D01*
X25907506Y50560181D02*
X25812268Y50560181D01*
X25812268Y50560181D02*
X25669411Y50512562D01*
X25669411Y50512562D02*
X25621792Y50464943D01*
X24764649Y49560181D02*
X24764649Y50083991D01*
X24764649Y50083991D02*
X24812268Y50179229D01*
X24812268Y50179229D02*
X24907506Y50226848D01*
X24907506Y50226848D02*
X25097982Y50226848D01*
X25097982Y50226848D02*
X25193220Y50179229D01*
X24764649Y49607800D02*
X24859887Y49560181D01*
X24859887Y49560181D02*
X25097982Y49560181D01*
X25097982Y49560181D02*
X25193220Y49607800D01*
X25193220Y49607800D02*
X25240839Y49703039D01*
X25240839Y49703039D02*
X25240839Y49798277D01*
X25240839Y49798277D02*
X25193220Y49893515D01*
X25193220Y49893515D02*
X25097982Y49941134D01*
X25097982Y49941134D02*
X24859887Y49941134D01*
X24859887Y49941134D02*
X24764649Y49988753D01*
X24288458Y49560181D02*
X24288458Y50226848D01*
X24288458Y50036372D02*
X24240839Y50131610D01*
X24240839Y50131610D02*
X24193220Y50179229D01*
X24193220Y50179229D02*
X24097982Y50226848D01*
X24097982Y50226848D02*
X24002744Y50226848D01*
X23240839Y49560181D02*
X23240839Y50560181D01*
X23240839Y49607800D02*
X23336077Y49560181D01*
X23336077Y49560181D02*
X23526553Y49560181D01*
X23526553Y49560181D02*
X23621791Y49607800D01*
X23621791Y49607800D02*
X23669410Y49655420D01*
X23669410Y49655420D02*
X23717029Y49750658D01*
X23717029Y49750658D02*
X23717029Y50036372D01*
X23717029Y50036372D02*
X23669410Y50131610D01*
X23669410Y50131610D02*
X23621791Y50179229D01*
X23621791Y50179229D02*
X23526553Y50226848D01*
X23526553Y50226848D02*
X23336077Y50226848D01*
X23336077Y50226848D02*
X23240839Y50179229D01*
X23002744Y49464943D02*
X22240839Y49464943D01*
X22002743Y49560181D02*
X22002743Y50560181D01*
X21526553Y49560181D02*
X21526553Y50560181D01*
X21526553Y50560181D02*
X20955125Y49560181D01*
X20955125Y49560181D02*
X20955125Y50560181D01*
X25591792Y39225420D02*
X25639411Y39177800D01*
X25639411Y39177800D02*
X25782268Y39130181D01*
X25782268Y39130181D02*
X25877506Y39130181D01*
X25877506Y39130181D02*
X26020363Y39177800D01*
X26020363Y39177800D02*
X26115601Y39273039D01*
X26115601Y39273039D02*
X26163220Y39368277D01*
X26163220Y39368277D02*
X26210839Y39558753D01*
X26210839Y39558753D02*
X26210839Y39701610D01*
X26210839Y39701610D02*
X26163220Y39892086D01*
X26163220Y39892086D02*
X26115601Y39987324D01*
X26115601Y39987324D02*
X26020363Y40082562D01*
X26020363Y40082562D02*
X25877506Y40130181D01*
X25877506Y40130181D02*
X25782268Y40130181D01*
X25782268Y40130181D02*
X25639411Y40082562D01*
X25639411Y40082562D02*
X25591792Y40034943D01*
X25163220Y39130181D02*
X25163220Y40130181D01*
X25163220Y40130181D02*
X24829887Y39415896D01*
X24829887Y39415896D02*
X24496554Y40130181D01*
X24496554Y40130181D02*
X24496554Y39130181D01*
X24020363Y39130181D02*
X24020363Y40130181D01*
X24020363Y40130181D02*
X23782268Y40130181D01*
X23782268Y40130181D02*
X23639411Y40082562D01*
X23639411Y40082562D02*
X23544173Y39987324D01*
X23544173Y39987324D02*
X23496554Y39892086D01*
X23496554Y39892086D02*
X23448935Y39701610D01*
X23448935Y39701610D02*
X23448935Y39558753D01*
X23448935Y39558753D02*
X23496554Y39368277D01*
X23496554Y39368277D02*
X23544173Y39273039D01*
X23544173Y39273039D02*
X23639411Y39177800D01*
X23639411Y39177800D02*
X23782268Y39130181D01*
X23782268Y39130181D02*
X24020363Y39130181D01*
X26163220Y32011134D02*
X25401316Y32011134D01*
X25782268Y31630181D02*
X25782268Y32392086D01*
X25020363Y32630181D02*
X24401316Y32630181D01*
X24401316Y32630181D02*
X24734649Y32249229D01*
X24734649Y32249229D02*
X24591792Y32249229D01*
X24591792Y32249229D02*
X24496554Y32201610D01*
X24496554Y32201610D02*
X24448935Y32153991D01*
X24448935Y32153991D02*
X24401316Y32058753D01*
X24401316Y32058753D02*
X24401316Y31820658D01*
X24401316Y31820658D02*
X24448935Y31725420D01*
X24448935Y31725420D02*
X24496554Y31677800D01*
X24496554Y31677800D02*
X24591792Y31630181D01*
X24591792Y31630181D02*
X24877506Y31630181D01*
X24877506Y31630181D02*
X24972744Y31677800D01*
X24972744Y31677800D02*
X25020363Y31725420D01*
X23972744Y31725420D02*
X23925125Y31677800D01*
X23925125Y31677800D02*
X23972744Y31630181D01*
X23972744Y31630181D02*
X24020363Y31677800D01*
X24020363Y31677800D02*
X23972744Y31725420D01*
X23972744Y31725420D02*
X23972744Y31630181D01*
X23591792Y32630181D02*
X22972745Y32630181D01*
X22972745Y32630181D02*
X23306078Y32249229D01*
X23306078Y32249229D02*
X23163221Y32249229D01*
X23163221Y32249229D02*
X23067983Y32201610D01*
X23067983Y32201610D02*
X23020364Y32153991D01*
X23020364Y32153991D02*
X22972745Y32058753D01*
X22972745Y32058753D02*
X22972745Y31820658D01*
X22972745Y31820658D02*
X23020364Y31725420D01*
X23020364Y31725420D02*
X23067983Y31677800D01*
X23067983Y31677800D02*
X23163221Y31630181D01*
X23163221Y31630181D02*
X23448935Y31630181D01*
X23448935Y31630181D02*
X23544173Y31677800D01*
X23544173Y31677800D02*
X23591792Y31725420D01*
X22687030Y32630181D02*
X22353697Y31630181D01*
X22353697Y31630181D02*
X22020364Y32630181D01*
X25639411Y30082562D02*
X25734649Y30130181D01*
X25734649Y30130181D02*
X25877506Y30130181D01*
X25877506Y30130181D02*
X26020363Y30082562D01*
X26020363Y30082562D02*
X26115601Y29987324D01*
X26115601Y29987324D02*
X26163220Y29892086D01*
X26163220Y29892086D02*
X26210839Y29701610D01*
X26210839Y29701610D02*
X26210839Y29558753D01*
X26210839Y29558753D02*
X26163220Y29368277D01*
X26163220Y29368277D02*
X26115601Y29273039D01*
X26115601Y29273039D02*
X26020363Y29177800D01*
X26020363Y29177800D02*
X25877506Y29130181D01*
X25877506Y29130181D02*
X25782268Y29130181D01*
X25782268Y29130181D02*
X25639411Y29177800D01*
X25639411Y29177800D02*
X25591792Y29225420D01*
X25591792Y29225420D02*
X25591792Y29558753D01*
X25591792Y29558753D02*
X25782268Y29558753D01*
X25163220Y29130181D02*
X25163220Y30130181D01*
X25163220Y30130181D02*
X24591792Y29130181D01*
X24591792Y29130181D02*
X24591792Y30130181D01*
X24115601Y29130181D02*
X24115601Y30130181D01*
X24115601Y30130181D02*
X23877506Y30130181D01*
X23877506Y30130181D02*
X23734649Y30082562D01*
X23734649Y30082562D02*
X23639411Y29987324D01*
X23639411Y29987324D02*
X23591792Y29892086D01*
X23591792Y29892086D02*
X23544173Y29701610D01*
X23544173Y29701610D02*
X23544173Y29558753D01*
X23544173Y29558753D02*
X23591792Y29368277D01*
X23591792Y29368277D02*
X23639411Y29273039D01*
X23639411Y29273039D02*
X23734649Y29177800D01*
X23734649Y29177800D02*
X23877506Y29130181D01*
X23877506Y29130181D02*
X24115601Y29130181D01*
M02*
